# This file uses meters as units for non-parametric coordinates.

mtllib pizza box.mtl
g default
v -278.571289 26.244938 -298.862671
v -278.571289 7.827961 -298.862671
v -278.571289 7.827961 298.862671
v -278.571289 26.244938 298.862671
v -274.265289 7.827961 -294.405365
v -274.265289 7.827961 294.405365
v -296.417603 -26.244938 298.862671
v -298.146515 -25.528790 298.146515
v -298.862671 -23.799856 296.417603
v -298.862671 7.827961 296.417603
v -298.146515 7.827961 298.146515
v -296.417603 7.827961 298.862671
v 296.417603 -25.528790 298.146515
v 296.417603 -26.244938 296.417603
v 298.146515 -25.528790 296.417603
v 298.862671 -23.799856 296.417603
v 298.146515 -23.799856 298.146515
v 296.417603 -23.799856 298.862671
v 297.661407 7.827961 297.619202
v 296.417603 7.827961 298.862671
v 298.146515 7.827961 298.146515
v 298.862671 7.827961 296.417603
v -296.417603 26.244938 298.862671
v -298.146515 25.528790 298.146515
v -298.862671 23.799856 296.417603
v -298.862671 23.799856 -296.417603
v -298.146515 25.528790 -298.146515
v -296.417603 26.244938 -298.862671
v -298.862671 7.827961 -296.417603
v -298.146515 7.827961 -298.146515
v -296.417603 7.827961 -298.862671
v -296.417603 -26.244938 -298.862671
v -298.146515 -25.528790 -298.146515
v -298.862671 -23.799856 -296.417603
v 296.417603 -25.528790 -298.146515
v 296.417603 -23.799856 -298.862671
v 298.146515 -23.799856 -298.146515
v 298.862671 -23.799856 -296.417603
v 298.146515 -25.528790 -296.417603
v 296.417603 -26.244938 -296.417603
v 297.661407 7.827961 -297.619202
v 298.862671 7.827961 -296.417603
v 298.146515 7.827961 -298.146515
v 296.417603 7.827961 -298.862671
v -278.571289 -26.244938 -296.417603
v -280.300232 -26.244938 -298.862671
v -278.571289 -23.799856 -298.862671
v -278.571289 -25.528790 -298.146515
v -278.571289 -23.799856 298.862671
v -280.300232 -26.244938 298.862671
v -278.571289 -26.244938 296.417603
v -278.571289 -25.528790 298.146515
v 292.111603 7.827961 -294.405365
v 293.840515 7.827961 -293.689209
v 294.556671 7.827961 -291.960297
v 295.757935 7.827961 -295.648834
v 292.111603 25.528790 -293.689209
v 292.111603 26.244938 -291.960297
v 293.840515 25.528790 -291.960297
v 294.556671 23.799856 -291.960297
v 293.840515 23.799856 -293.689209
v 292.111603 23.799856 -294.405365
v 292.111603 25.528790 293.689209
v 292.111603 23.799856 294.405365
v 293.840515 23.799856 293.689209
v 294.556671 23.799856 291.960297
v 293.840515 25.528790 291.960297
v 292.111603 26.244938 291.960297
v 292.111603 7.827961 294.405365
v 295.757935 7.827961 295.648834
v 294.556671 7.827961 291.960297
v 293.840515 7.827961 293.689209
v -274.265289 23.799856 -294.405365
v -271.903198 26.244938 -291.960297
v -273.573456 25.528790 -293.689209
v -273.573456 25.528790 293.689209
v -271.903198 26.244938 291.960297
v -274.265289 23.799856 294.405365
v 297.828766 -25.211031 297.828766
v 297.828766 -25.211031 -297.828766
v 293.522766 25.211031 -293.371460
v 293.522766 25.211031 293.371460
vt 0.706632 0.001543
vt 0.705428 0.000403
vt 0.726934 0.000012
vt 0.726941 0.001220
vt 0.707685 0.382200
vt 0.706487 0.383347
vt 0.738407 0.000181
vt 0.737208 0.001327
vt 0.728023 0.382409
vt 0.728022 0.383618
vt 0.739487 0.383383
vt 0.738283 0.382245
vt 0.742755 0.382163
vt 0.741552 0.382187
vt 0.741502 0.001582
vt 0.742704 0.001605
vt 0.742684 0.383360
vt 0.741727 0.383151
vt 0.742633 0.000407
vt 0.741676 0.000617
vt 0.763006 0.001215
vt 0.763097 0.382545
vt 0.763052 0.383750
vt 0.762960 0.000012
vt 0.767817 0.001218
vt 0.767871 0.000011
vt 0.778153 0.000285
vt 0.778073 0.001478
vt 0.779276 0.001462
vt 0.779108 0.000498
vt 0.775819 0.376487
vt 0.765550 0.376625
vt 0.777021 0.376518
vt 0.775884 0.377683
vt 0.765590 0.377829
vt 0.776842 0.377481
vt 0.601217 0.592669
vt 0.970673 0.592668
vt 0.971472 0.593467
vt 0.970249 0.594733
vt 0.967906 0.595532
vt 0.603984 0.595533
vt 0.971784 0.593128
vt 0.972244 0.594239
vt 0.972245 0.975161
vt 0.971473 0.975933
vt 0.970250 0.974668
vt 0.969478 0.972297
vt 0.969477 0.597103
vt 0.969017 0.595992
vt 0.971785 0.976272
vt 0.970674 0.976732
vt 0.601218 0.976733
vt 0.603985 0.973869
vt 0.967907 0.973868
vt 0.969018 0.973408
vt 0.702353 0.589760
vt 0.702421 0.590961
vt 0.330320 0.597242
vt 0.330262 0.596040
vt 0.703555 0.589771
vt 0.703383 0.590741
vt 0.329113 0.597605
vt 0.329317 0.212412
vt 0.696104 0.211733
vt 0.697306 0.211692
vt 0.317843 0.210960
vt 0.328202 0.210868
vt 0.318801 0.597545
vt 0.696151 0.210532
vt 0.329366 0.211210
vt 0.697115 0.210729
vt 0.317598 0.597092
vt 0.316641 0.211434
vt 0.006719 0.589218
vt 0.007929 0.588775
vt 0.001194 0.974670
vt 0.000000 0.974189
vt 0.019396 0.588954
vt 0.012660 0.974854
vt 0.381317 0.973151
vt 0.017021 0.970467
vt 0.023603 0.593476
vt 0.384069 0.599972
vt 0.384129 0.598772
vt 0.022572 0.592255
vt 0.382519 0.973145
vt 0.385271 0.599943
vt 0.385090 0.598978
vt 0.381495 0.974340
vt 0.382413 0.974091
vt 0.788686 0.000012
vt 0.789888 0.000035
vt 0.782764 0.363444
vt 0.781583 0.362348
vt 0.384554 0.201595
vt 0.383710 0.202472
vt 0.377036 0.188880
vt 0.377689 0.189934
vt 0.374258 0.203772
vt 0.373355 0.201699
vt 0.370204 0.181253
vt 0.381170 0.190196
vt 0.380590 0.191189
vt 0.373602 0.202893
vt 0.003376 0.253972
vt 0.001188 0.233584
vt 0.380987 0.187919
vt 0.003411 0.255187
vt 0.002179 0.253938
vt 0.000000 0.233885
vt 0.381940 0.187206
vt 0.382163 0.187589
vt 0.376183 0.177222
vt 0.381002 0.186335
vt 0.002342 0.254886
vt 0.703494 0.009404
vt 0.698242 0.000468
vt 0.704184 0.010404
vt 0.704484 0.008700
vt 0.699350 0.000000
vt 0.704876 0.009586
vt 0.770771 0.943116
vt 0.771018 0.944309
vt 0.400237 0.999875
vt 0.400107 0.998663
vt 0.771951 0.942816
vt 0.771968 0.943828
vt 0.399212 1.000000
vt 0.397413 0.978127
vt 0.766937 0.922918
vt 0.768150 0.922875
vt 0.393904 0.988161
vt 0.394817 0.998131
vt 0.391483 0.996129
vt 0.388844 0.987708
vt 0.393827 0.989374
vt 0.393672 0.998165
vt 0.388992 0.986011
vt 0.389947 0.975730
vt 0.388711 0.987566
vt 0.388469 0.987221
vt 0.392582 0.996267
vt 0.021919 0.980876
vt 0.021238 0.970518
vt 0.021679 0.982070
vt 0.020041 0.970867
vt 0.020743 0.980853
vt 0.020746 0.981674
vn 0.000000 1.000000 0.000000
vn 0.000000 1.000000 0.000000
vn 0.000000 1.000000 0.000000
vn 0.000000 1.000000 0.000000
vn 0.000000 1.000000 0.000000
vn 0.000000 1.000000 0.000000
vn 0.000000 1.000000 0.000000
vn 0.000000 1.000000 0.000000
vn 0.000000 1.000000 0.000000
vn 0.000000 1.000000 0.000000
vn 0.000000 1.000000 -0.000000
vn 0.000000 1.000000 0.000000
vn 0.000000 1.000000 0.000000
vn 0.000000 1.000000 0.000000
vn 0.000000 1.000000 0.000000
vn 0.000000 1.000000 0.000000
vn -0.999523 -0.030847 0.001686
vn -0.923877 0.000000 0.382689
vn -0.923877 0.000000 0.382690
vn -0.999999 0.000000 0.001248
vn -0.382684 0.000000 0.923879
vn -0.028461 0.000000 0.999595
vn -0.036180 0.000000 0.999345
vn -0.382688 0.000000 0.923878
vn 0.001241 -0.999999 0.001203
vn 0.000767 -0.923913 0.382602
vn 0.000913 -0.923877 0.382688
vn 0.000001 -0.999999 0.001148
vn 0.000767 -0.382602 0.923913
vn 0.001219 -0.021443 0.999769
vn 0.000020 -0.020441 0.999791
vn 0.000913 -0.382687 0.923878
vn 0.999769 -0.021444 0.001183
vn 0.923912 -0.382604 0.000744
vn 0.923912 -0.382604 -0.000744
vn 0.999769 -0.021444 -0.001183
vn 0.382607 -0.923911 0.000744
vn 0.001241 -0.999999 -0.001203
vn 0.382607 -0.923911 -0.000744
vn 0.381156 -0.013435 0.924413
vn 0.382690 0.000000 0.923877
vn 0.001242 0.000000 0.999999
vn 0.924413 -0.013435 0.381158
vn 0.999999 0.000000 0.001205
vn 0.923876 0.000000 0.382692
vn -0.998381 0.056855 0.001610
vn -0.923874 0.382696 0.000000
vn -0.923874 0.382696 0.000000
vn -0.998381 0.056855 -0.001610
vn -0.382684 0.923879 0.000000
vn -0.028617 0.999590 0.000000
vn -0.028617 0.999590 0.000000
vn -0.382684 0.923879 0.000000
vn 0.001219 -0.021443 -0.999769
vn 0.000767 -0.382602 -0.923913
vn 0.000913 -0.382687 -0.923878
vn 0.000020 -0.020441 -0.999791
vn 0.000767 -0.923913 -0.382602
vn 0.000001 -0.999999 -0.001148
vn 0.000913 -0.923877 -0.382688
vn 0.924413 -0.013435 -0.381158
vn 0.923876 0.000000 -0.382692
vn 0.999999 0.000000 -0.001205
vn 0.381156 -0.013435 -0.924413
vn 0.001242 0.000000 -0.999999
vn 0.382690 0.000000 -0.923877
vn 0.999999 0.000000 -0.001223
vn 0.923877 0.000000 -0.382688
vn 0.924754 0.025619 -0.379702
vn 0.999183 0.040387 -0.001181
vn 0.382680 0.000000 -0.923881
vn 0.001261 0.000000 -0.999999
vn 0.001217 0.040364 -0.999184
vn 0.379696 0.025618 -0.924757
vn 0.001250 0.999999 -0.001209
vn 0.000781 0.923914 -0.382599
vn 0.000000 0.923878 -0.382686
vn 0.000000 0.999999 -0.001190
vn 0.000780 0.382600 -0.923914
vn 0.000000 0.032009 -0.999488
vn 0.000000 0.382687 -0.923878
vn 0.923915 0.382598 -0.000756
vn 0.923915 0.382598 0.000756
vn 0.999183 0.040387 0.001181
vn 0.382604 0.923912 -0.000756
vn 0.001250 0.999999 0.001209
vn 0.382604 0.923912 0.000756
vn 0.001217 0.040364 0.999184
vn 0.000780 0.382600 0.923914
vn 0.000000 0.382687 0.923878
vn 0.000000 0.032009 0.999488
vn 0.000781 0.923914 0.382599
vn 0.000000 0.999999 0.001190
vn 0.000000 0.923878 0.382686
vn 0.924754 0.025618 0.379702
vn 0.923877 0.000000 0.382688
vn 0.999999 0.000000 0.001223
vn 0.379696 0.025618 0.924757
vn 0.001261 0.000000 0.999999
vn 0.382680 0.000000 0.923881
vn 0.000000 0.000000 1.000000
vn 0.000000 0.000000 1.000000
vn -0.028131 0.000000 0.999604
vn 0.000000 1.000000 0.000000
vn 0.000000 1.000000 0.000000
vn -0.028131 0.000000 -0.999604
vn 0.000000 0.000000 -1.000000
vn 0.000000 0.000000 -1.000000
vn -0.036180 0.000000 -0.999345
vn -0.028628 -0.999590 0.000000
vn 0.000000 -1.000000 0.000000
vn 0.000000 -1.000000 0.000000
vn -0.028628 -0.999590 0.000000
vn -0.999999 0.000000 -0.001248
vn -0.999523 -0.030847 -0.001686
vn 0.000000 0.000000 1.000000
vn 0.000000 0.000000 -1.000000
vn -0.028461 0.000000 -0.999595
vn 0.000000 0.000000 -1.000000
vn 0.000000 0.000000 1.000000
vn 0.000000 1.000000 0.000000
vn 0.000000 1.000000 -0.000001
vn 0.475967 -0.336559 -0.812517
vn 0.475957 -0.812524 -0.336556
vn 0.475957 -0.812524 0.336556
vn 0.475973 -0.336557 0.812514
vn 0.000000 1.000000 -0.000000
vn 0.000000 1.000000 0.000000
vn 0.719209 0.000000 -0.694793
vn 0.719209 0.000000 -0.694793
vn 0.719209 0.000000 -0.694793
vn 0.719209 0.000000 -0.694793
vn 0.719209 0.000000 -0.694793
vn 0.719209 0.000000 -0.694793
vn 0.719209 0.000001 0.694794
vn 0.719209 0.000001 0.694794
vn 0.719209 0.000001 0.694794
vn 0.719209 0.000001 0.694794
vn 0.719209 0.000001 0.694794
vn 0.719209 0.000001 0.694794
vn -0.382684 -0.923879 0.000000
vn -0.382684 -0.923879 0.000000
vn -0.923874 -0.382696 0.000000
vn -0.923874 -0.382696 0.000000
vn -0.923875 0.000000 0.382693
vn -0.382694 0.000000 0.923875
vn -0.923876 0.000000 -0.382693
vn -0.923877 0.000000 -0.382690
vn -0.382694 0.000000 -0.923875
vn -0.382687 0.000000 -0.923878
vn -0.923877 0.000000 -0.382689
vn -0.382684 0.000000 -0.923879
vn 0.325280 -0.325261 0.887918
vn 0.325270 -0.887918 0.325272
vn 0.887918 -0.325270 0.325272
vn 0.325272 -0.887916 -0.325273
vn 0.325275 -0.325261 -0.887920
vn 0.887918 -0.325268 -0.325273
vn 0.325279 0.325268 -0.887916
vn 0.325269 0.887918 -0.325271
vn 0.887916 0.325278 -0.325269
vn 0.325269 0.887919 0.325270
vn 0.325284 0.325268 0.887914
vn 0.887917 0.325275 0.325269
s 1
g pizza_box
usemtl initialShadingGroup
f 3/37/1 20/38/2 19/39/3 70/40/4 69/41/5 6/42/6
f 19/39/3 22/44/7 42/45/8 41/46/9 56/47/10 55/48/11 71/49/12 70/40/4
f 41/46/9 44/52/13 2/53/14 5/54/15 53/55/16 56/47/10
s 4
f 9/1/17 8/2/18 11/3/19 10/4/20
s 5
f 8/96/21 7/97/22 12/98/23 11/99/24
s 6
f 14/57/25 13/58/26 52/59/27 51/60/28
s 5
f 13/109/29 18/106/30 49/101/31 52/105/32
s 8
f 16/13/33 15/14/34 39/15/35 38/16/36
s 6
f 15/61/37 14/57/25 40/65/38 39/66/39
s 5
f 18/106/30 17/110/40 21/111/41 20/107/42
s 8
f 17/17/43 16/13/33 22/22/44 21/23/45
s 4
f 25/8/46 24/7/47 27/11/48 26/12/49
s 10
f 24/75/50 23/76/51 28/77/52 27/78/53
s 11
f 36/123/54 35/124/55 48/125/56 47/126/57
s 6
f 35/70/58 40/65/38 45/64/59 48/71/60
s 8
f 38/16/36 37/19/61 43/24/62 42/21/63
s 11
f 37/127/64 36/123/54 44/131/65 43/132/66
s 12
f 55/25/67 54/26/68 61/27/69 60/28/70
s 13
f 54/147/71 53/145/72 62/144/73 61/148/74
s 10
f 58/92/75 57/93/76 75/94/77 74/95/78
s 13
f 57/146/79 62/144/73 73/139/80 75/142/81
s 12
f 60/28/70 59/29/82 67/33/83 66/31/84
s 10
f 59/87/85 58/81/75 68/84/86 67/88/87
s 15
f 64/117/88 63/119/89 76/112/90 78/115/91
s 10
f 63/85/92 68/84/86 77/83/93 76/86/94
s 12
f 66/31/84 65/34/95 72/35/96 71/32/97
s 15
f 65/120/98 64/117/88 69/118/99 72/121/100
s 5
f 12/98/23 3/102/101 4/108/102 23/103/103
s 10
f 23/76/51 4/79/104 1/80/105 28/77/52
s 11
f 28/135/106 1/136/107 2/130/108 31/133/109
s 6
f 32/67/110 46/68/111 45/64/59 51/60/28 50/63/112 7/69/113
s 12
f 66/31/84 71/32/97 55/25/67 60/28/70
s 4
f 29/9/114 10/4/20 25/8/46 26/12/49
f 34/5/115 9/1/17 10/4/20 29/9/114
s 5
f 7/97/22 50/100/116 49/101/31 3/102/101 12/98/23
s 8
f 16/13/33 38/16/36 42/21/63 22/22/44
s 11
f 31/133/109 2/130/108 47/126/57 46/129/117 32/134/118
s 13
f 73/139/80 62/144/73 53/145/72 5/140/119
s 11
f 36/123/54 47/126/57 2/130/108 44/131/65
s 6
f 14/57/25 51/60/28 45/64/59 40/65/38
s 5
f 3/102/101 49/101/31 18/106/30 20/107/42
s 15
f 64/117/88 78/115/91 6/114/120 69/118/99
s 10
f 58/81/75 74/82/78 1/80/105 4/79/104 77/83/93 68/84/86
s 1
f 19/39/3 20/38/2 21/43/121
f 19/39/3 21/43/121 22/44/7
f 41/46/9 42/45/8 43/51/122
f 41/46/9 43/51/122 44/52/13
s 11
f 46/129/123 47/126/57 48/125/56
s 6
f 46/68/124 48/71/60 45/64/59
f 50/63/125 51/60/28 52/59/27
s 5
f 50/100/126 52/105/32 49/101/31
s 1
f 56/47/10 53/55/16 54/56/127
f 56/47/10 54/56/127 55/48/11
f 70/40/4 71/49/12 72/50/128
f 70/40/4 72/50/128 69/41/5
s off
f 73/139/129 5/140/130 2/130/131 1/136/132 74/141/133 75/142/134
f 76/112/135 77/113/136 4/108/137 3/102/138 6/114/139 78/115/140
s 6
f 7/69/113 8/73/141 33/74/142 32/67/110
s 4
f 8/2/143 9/1/17 34/5/115 33/6/144
f 10/4/20 11/3/19 24/7/145 25/8/46
s 5
f 11/99/24 12/98/23 23/103/103 24/104/146
s 4
f 26/12/49 27/11/147 30/10/148 29/9/114
s 11
f 27/143/149 28/135/106 31/133/109 30/137/150
s 4
f 29/9/114 30/10/148 33/6/151 34/5/115
s 11
f 30/137/150 31/133/109 32/134/118 33/138/152
s 5
f 17/110/40 18/106/30 13/109/29 79/116/153
s 6
f 13/58/26 14/57/25 15/61/37 79/62/154
s 8
f 15/14/34 16/13/33 17/17/43 79/18/155
s 6
f 39/66/39 40/65/38 35/70/58 80/72/156
s 11
f 35/124/55 36/123/54 37/127/64 80/128/157
s 8
f 37/19/61 38/16/36 39/15/35 80/20/158
s 13
f 61/148/74 62/144/73 57/146/79 81/149/159
s 10
f 57/90/76 58/81/75 59/87/85 81/91/160
s 12
f 59/29/82 60/28/70 61/27/69 81/30/161
s 10
f 67/88/87 68/84/86 63/85/92 82/89/162
s 15
f 63/119/89 64/117/88 65/120/98 82/122/163
s 12
f 65/34/95 66/31/84 67/33/83 82/36/164
