# This file uses meters as units for non-parametric coordinates.

mtllib tv.mtl
g default
v 16.923586 -279.670528 495.719228
v 16.923586 -279.670528 -495.719228
v 16.923586 338.599814 495.719228
v 16.923586 338.599814 -495.719228
v -16.924121 338.599814 495.719228
v -16.924121 338.599814 -495.719228
v -16.924121 -279.670528 495.719228
v -16.924121 -279.670528 -495.719228
v 13.040177 -272.158613 483.673283
v 13.040177 -272.158613 -483.673283
v 13.040177 331.088033 -483.673283
v 13.040177 331.088033 483.673283
v -9.540459 -279.670528 148.324795
v -9.540459 -279.670528 -148.324795
v 9.539924 -279.670528 -148.324795
v 9.539924 -279.670528 148.324795
v -9.540459 -310.787504 148.324795
v -9.540459 -310.787504 -148.324795
v 9.539924 -310.787504 -148.324795
v 9.539924 -310.787504 148.324795
v -66.303329 -338.599814 247.556682
v -66.303329 -338.599814 -247.556682
v 66.303329 -338.599814 -247.556682
v 66.303329 -338.599814 247.556682
vt 0.008856 0.655099
vt 0.005586 0.010357
vt 0.407641 0.008325
vt 0.410911 0.653067
vt 0.003358 0.663424
vt 0.000000 0.002098
vt 0.413140 0.000000
vt 0.416497 0.661326
vt 0.830816 0.000000
vt 0.830815 0.660524
vt 0.418907 0.660523
vt 0.418907 0.000000
vt 0.944128 0.660523
vt 0.944128 0.858159
vt 0.923397 0.858159
vt 0.923397 0.660523
vt 0.439638 0.660523
vt 0.439638 0.858159
vt 0.418907 0.858159
vt 0.418907 0.660523
vt 0.954956 0.000000
vt 0.954956 0.660523
vt 0.932406 0.660523
vt 0.932406 0.000000
vt 0.833310 0.662926
vt 0.833310 0.333068
vt 0.921656 0.333068
vt 0.921656 0.662926
vt 0.954928 0.660524
vt 0.954928 0.000000
vt 0.959847 0.231444
vt 0.959847 0.429080
vt 0.977478 0.000000
vt 0.972559 0.231444
vt 0.977478 0.660524
vt 0.972559 0.429080
vt 0.875211 0.067739
vt 0.874567 0.265094
vt 0.833310 0.332920
vt 0.833877 0.000000
vt 0.887088 0.265337
vt 0.928422 0.333076
vt 0.887732 0.067983
vt 0.928989 0.000156
vt 1.000000 0.411909
vt 0.977450 0.411909
vt 0.977450 0.000000
vt 1.000000 0.000000
vt 0.977450 0.411909
vt 1.000000 0.411909
vt 1.000000 0.823817
vt 0.977450 0.823817
vt 0.441429 0.660524
vt 0.454141 0.660523
vt 0.454141 0.681254
vt 0.441429 0.681255
vt 0.467654 0.681255
vt 0.454942 0.681255
vt 0.454942 0.660523
vt 0.467654 0.660523
vn 1.000000 0.000000 0.000000
vn 1.000000 0.000000 0.000000
vn 1.000000 0.000000 0.000000
vn 1.000000 0.000000 0.000000
vn 0.000000 1.000000 0.000000
vn 0.000000 1.000000 0.000000
vn 0.000000 1.000000 0.000000
vn 0.000000 1.000000 0.000000
vn -1.000000 0.000000 0.000000
vn -1.000000 0.000000 0.000000
vn -1.000000 0.000000 0.000000
vn -1.000000 0.000000 0.000000
vn 0.000000 -1.000000 0.000000
vn 0.000000 -1.000000 0.000000
vn 0.000000 -1.000000 0.000000
vn 0.000000 -1.000000 0.000000
vn 0.000000 0.000000 -1.000000
vn 0.000000 0.000000 -1.000000
vn 0.000000 0.000000 -1.000000
vn 0.000000 0.000000 -1.000000
vn 0.000000 0.000000 1.000000
vn 0.000000 0.000000 1.000000
vn 0.000000 0.000000 1.000000
vn 0.000000 0.000000 1.000000
vn 0.888312 0.459240 0.000000
vn 0.888312 0.459240 0.000000
vn 0.888312 0.459240 0.000000
vn 0.888312 0.459240 0.000000
vn 0.951762 0.000000 0.306836
vn 0.951762 0.000000 0.306836
vn 0.951762 0.000000 0.306836
vn 0.951762 0.000000 0.306836
vn 0.888309 -0.459246 0.000000
vn 0.888309 -0.459246 0.000000
vn 0.888309 -0.459246 0.000000
vn 0.888309 -0.459246 0.000000
vn 0.951763 0.000000 -0.306835
vn 0.951763 0.000000 -0.306835
vn 0.951763 0.000000 -0.306835
vn 0.951763 0.000000 -0.306835
vn 0.000000 -1.000000 0.000000
vn 0.000000 -1.000000 0.000000
vn 0.000000 -1.000000 0.000000
vn 0.000000 -1.000000 0.000000
vn 0.000000 -1.000000 0.000000
vn 0.000000 -1.000000 0.000000
vn 0.000000 -1.000000 0.000000
vn 0.000000 -1.000000 0.000000
vn 0.000000 -1.000000 0.000000
vn 0.000000 -1.000000 0.000000
vn 0.000000 -1.000000 0.000000
vn 0.000000 -1.000000 0.000000
vn 0.000000 -1.000000 -0.000000
vn 0.000000 -1.000000 -0.000000
vn 0.000000 -1.000000 -0.000000
vn 0.000000 -1.000000 -0.000000
vn -1.000000 0.000000 0.000000
vn -1.000000 0.000000 0.000000
vn -1.000000 0.000000 0.000000
vn -1.000000 0.000000 0.000000
vn 0.000000 0.000000 -1.000000
vn 0.000000 0.000000 -1.000000
vn 0.000000 0.000000 -1.000000
vn 0.000000 0.000000 -1.000000
vn 1.000000 0.000000 0.000000
vn 1.000000 0.000000 0.000000
vn 1.000000 0.000000 0.000000
vn 1.000000 0.000000 0.000000
vn 0.000000 0.000000 1.000000
vn 0.000000 0.000000 1.000000
vn 0.000000 0.000000 1.000000
vn 0.000000 0.000000 1.000000
vn -0.439996 0.898000 0.000000
vn -0.439996 0.898000 0.000000
vn -0.439996 0.898000 0.000000
vn -0.439996 0.898000 0.000000
vn 0.000000 0.962895 -0.269876
vn 0.000000 0.962895 -0.269876
vn 0.000000 0.962895 -0.269876
vn 0.000000 0.962895 -0.269876
vn 0.439995 0.898000 0.000000
vn 0.439995 0.898000 0.000000
vn 0.439995 0.898000 0.000000
vn 0.439995 0.898000 0.000000
vn 0.000000 0.962895 0.269876
vn 0.000000 0.962895 0.269876
vn 0.000000 0.962895 0.269876
vn 0.000000 0.962895 0.269876
s off
g polySurface163
usemtl initialShadingGroup
f 9/1/1 10/2/2 11/3/3 12/4/4
f 3/21/5 4/22/6 6/23/7 5/24/8
f 5/9/9 6/10/10 8/11/11 7/12/12
f 21/25/13 22/26/14 23/27/15 24/28/16
f 2/45/17 8/46/18 6/47/19 4/48/20
f 7/49/21 1/50/22 3/51/23 5/52/24
f 1/5/25 2/6/26 10/2/27 9/1/28
f 2/6/29 4/7/30 11/3/31 10/2/32
f 4/7/33 3/8/34 12/4/35 11/3/36
f 3/8/37 1/5/38 9/1/39 12/4/40
f 7/29/41 8/30/42 14/31/43 13/32/44
f 8/30/45 2/33/46 15/34/47 14/31/48
f 2/33/49 1/35/50 16/36/51 15/34/52
f 1/35/53 7/29/54 13/32/55 16/36/56
f 13/13/57 14/14/58 18/15/59 17/16/60
f 14/53/61 15/54/62 19/55/63 18/56/64
f 15/17/65 16/18/66 20/19/67 19/20/68
f 16/57/69 13/58/70 17/59/71 20/60/72
f 17/37/73 18/38/74 22/39/75 21/40/76
f 18/38/77 19/41/78 23/42/79 22/39/80
f 19/41/81 20/43/82 24/44/83 23/42/84
f 20/43/85 17/37/86 21/40/87 24/44/88
