# This file uses meters as units for non-parametric coordinates.

mtllib broken tv.mtl
g default
v -618.933594 13.409088 -864.843244
v -315.824921 13.409084 -860.729962
v -618.933594 13.409088 -1052.394269
v -302.935089 13.409088 -1047.837628
v -618.933594 3.141491 -1052.394269
v -302.935089 3.141491 -1047.837628
v -618.933594 3.141491 -864.843244
v -315.824921 3.141491 -860.729962
v -615.279541 12.231056 -867.121930
v -319.313721 12.231056 -863.254438
v -306.737122 12.231056 -1045.815412
v -615.279541 12.231056 -1050.115705
v -513.552246 5.381317 -864.843244
v -423.564117 5.381317 -864.843244
v -423.564117 11.169262 -864.843244
v -513.552246 11.169262 -864.843244
v -513.552246 5.381317 -855.403913
v -423.564117 5.381317 -855.403913
v -423.564117 11.169266 -855.403913
v -513.552246 11.169266 -855.403913
v -465.162109 13.409088 -1059.013410
v -465.162109 3.141491 -1059.013410
v -309.387421 13.409087 -954.175824
v -309.387421 3.141493 -954.175824
v -312.887878 12.231056 -956.531659
v -461.381226 12.231060 -1056.468854
v -512.102844 13.409088 -864.843244
v -512.102844 3.141491 -864.843244
v -510.190735 12.231056 -867.121930
v -339.394653 13.409088 -1050.349347
v -339.394653 3.141491 -1050.349347
v -341.458801 12.231056 -1048.207502
v -383.808838 12.231056 -1004.262067
v -383.808868 3.141493 -1004.262067
v -575.393372 13.409088 -1052.394269
v -575.393372 3.141491 -1052.394269
v -572.677734 12.231056 -1050.115583
v -351.878693 3.857681 -864.843244
v -351.878693 12.692898 -864.843244
v -351.878693 13.409088 -864.843244
v -351.878693 3.141491 -864.843244
v -354.594360 12.231056 -867.121930
v -445.902069 12.231056 -943.738202
v -445.902069 3.141492 -943.738202
v -309.387421 3.141493 -954.175824
v -309.387421 13.409087 -954.175824
v -383.808868 3.141493 -1004.262067
v -480.794250 3.141491 -1052.394269
v -480.794250 13.409088 -1052.394269
v -476.847412 12.231060 -1050.115583
v -383.808838 12.231056 -1004.262067
v -312.887878 12.231056 -956.531659
v -510.190735 12.231056 -867.121930
v -445.902069 12.231056 -943.738202
v -512.102844 13.409088 -864.843244
v -512.102844 3.141491 -864.843244
v -445.902069 3.141492 -943.738202
v -395.870483 3.141493 -1003.363568
v -395.870422 12.231056 -1003.363568
v -339.394653 13.409088 -1050.349347
v -341.458801 12.231056 -1048.207502
v -339.394653 3.141491 -1050.349347
v -383.808868 3.141493 -1004.262067
v -383.808838 12.231056 -1004.262067
v -349.441254 12.692898 -863.045819
v -349.441254 3.857681 -863.045819
v -349.441254 13.409084 -863.045819
v -351.993835 12.231056 -865.505780
v -437.820038 12.231056 -948.216169
v -349.441254 3.141491 -863.045819
v -437.820038 3.141493 -948.216230
v -538.359436 -2.515941 -844.225812
v -398.756927 -2.515941 -844.225812
v -398.756927 19.066525 -844.225812
v -538.359436 19.066525 -844.225812
vt 0.722133 0.903492
vt 0.700257 0.903490
vt 0.700283 0.703928
vt 0.722158 0.703931
vt 0.953128 0.452084
vt 0.975003 0.452084
vt 0.975003 0.851668
vt 0.953128 0.851668
vt 0.209105 0.000040
vt 0.221436 0.000040
vt 0.221436 0.020151
vt 0.209105 0.020151
vt 0.396319 0.901847
vt 0.374443 0.901844
vt 0.374469 0.701821
vt 0.396344 0.701824
vt 0.206847 0.020151
vt 0.194516 0.020151
vt 0.194516 0.000040
vt 0.206847 0.000040
vt 0.007500 0.467335
vt 0.005436 0.242129
vt 0.170469 0.105454
vt 0.395613 0.376481
vt 0.394616 0.466476
vt 0.002294 0.475463
vt 0.000000 0.246374
vt 0.298908 0.000016
vt 0.397317 0.173370
vt 0.401033 0.382332
vt 0.399725 0.474594
vt 0.402713 0.181819
vt 0.403621 0.475243
vt 0.403621 0.382480
vt 0.635116 0.106594
vt 0.803204 0.247637
vt 0.803204 0.475243
vt 0.403621 0.180933
vt 0.508082 0.000000
vt 0.275599 0.474870
vt 0.288465 0.673504
vt 0.280584 0.678548
vt 0.267816 0.480524
vt 0.129404 0.779983
vt 0.014589 0.660335
vt 0.197919 0.484183
vt 0.203521 0.478384
vt 0.839263 0.199433
vt 0.762069 0.205981
vt 0.757542 0.200840
vt 0.830824 0.194833
vt 0.666217 0.107356
vt 0.817650 0.004998
vt 0.825518 0.000038
vt 0.911323 0.398223
vt 0.910288 0.589943
vt 0.890177 0.589835
vt 0.891212 0.398115
vt 0.860733 0.642529
vt 0.862339 0.345105
vt 0.916759 0.401772
vt 0.802378 0.238668
vt 0.894256 0.146659
vt 0.899342 0.142120
vt 0.922942 0.409669
vt 0.357936 0.878084
vt 0.199379 0.771374
vt 0.294005 0.673183
vt 0.371683 0.678534
vt 0.858620 0.755421
vt 0.690531 0.614378
vt 0.858620 0.414058
vt 0.576035 0.812327
vt 0.570650 0.816505
vt 0.564096 0.475205
vt 0.569671 0.480885
vt 0.736610 0.672249
vt 0.875322 0.813402
vt 0.876357 0.621682
vt 0.896467 0.621790
vt 0.895432 0.813510
vt 0.925911 0.569096
vt 0.924306 0.866520
vt 0.743031 0.662382
vt 0.841221 0.757008
vt 0.724572 0.930334
vt 0.475205 0.775459
vt 0.286911 0.594001
vt 0.401984 0.474594
vt 0.560541 0.581304
vt 0.546826 0.780393
vt 0.928813 0.800671
vt 0.929472 0.707910
vt 0.951347 0.708065
vt 0.950688 0.800827
vt 0.930904 0.506368
vt 0.952779 0.506524
vt 0.933483 0.496677
vt 0.954263 0.297606
vt 0.934898 0.297468
vt 0.029177 0.928502
vt 0.029177 0.700896
vt 0.033949 0.703984
vt 0.051053 0.928502
vt 0.046281 0.703984
vt 0.051053 0.700896
vt 0.977442 0.344518
vt 0.999317 0.344310
vt 0.998474 0.416112
vt 0.979651 0.416291
vt 1.000000 0.416097
vt 0.997562 0.423674
vt 0.978126 0.416305
vt 0.999978 0.677608
vt 0.980614 0.677793
vt 0.999318 0.946381
vt 0.977442 0.946379
vt 0.977468 0.677792
vt 0.999344 0.677794
vt 0.967626 0.344491
vt 0.962854 0.341403
vt 0.962854 0.000040
vt 0.964380 0.000040
vt 0.967626 0.152769
vt 0.983203 0.000040
vt 0.979957 0.152769
vt 0.984729 0.000040
vt 0.984729 0.341403
vt 0.979957 0.344491
vt 0.192077 0.077909
vt 0.170201 0.077903
vt 0.170225 0.000040
vt 0.192101 0.000047
vt 0.914225 0.297468
vt 0.914225 0.000040
vt 0.960207 0.000040
vt 0.960207 0.297468
vt 0.149620 0.058555
vt 0.137290 0.058320
vt 0.121572 0.000040
vt 0.167546 0.000916
vt 0.100596 0.000039
vt 0.112925 0.000274
vt 0.128643 0.058555
vt 0.082669 0.057679
vt 0.037732 0.166261
vt 0.034040 0.000471
vt 0.053401 0.000040
vt 0.057093 0.165830
vt 0.019361 0.665442
vt 0.024691 0.919332
vt 0.005488 0.927290
vt 0.000000 0.665848
vt 0.018473 0.209855
vt 0.036904 0.198471
vt 0.040263 0.207921
vt 0.000000 0.001750
vt 0.019290 0.000038
vt 0.061259 0.166184
vt 0.058355 0.000379
vt 0.077717 0.000040
vt 0.080622 0.165845
vn 0.000000 1.000000 0.000000
vn 0.000000 1.000000 0.000000
vn -0.000000 1.000000 0.000000
vn -0.000000 1.000000 0.000000
vn 0.000000 1.000000 0.000000
vn 0.000000 0.000000 -1.000000
vn 0.000000 0.000000 -1.000000
vn 0.000000 0.000000 -1.000000
vn 0.000000 0.000000 -1.000000
vn 0.000000 -1.000000 -0.000000
vn 0.000000 -1.000000 -0.000000
vn 0.000000 -1.000000 0.000000
vn 0.000000 -1.000000 -0.000000
vn 0.000000 -1.000000 -0.000000
vn 0.997636 0.000000 0.068727
vn 0.997636 0.000000 0.068727
vn 0.997636 0.000000 0.068727
vn 0.997636 0.000000 0.068727
vn -1.000000 0.000000 0.000000
vn -1.000000 0.000000 0.000000
vn -1.000000 0.000000 0.000000
vn -1.000000 0.000000 0.000000
vn 0.000000 0.888313 -0.459239
vn 0.000000 0.888313 -0.459239
vn 0.000000 0.888313 -0.459239
vn 0.000000 0.888313 -0.459239
vn -0.306112 0.951762 -0.021088
vn -0.306112 0.951762 -0.021088
vn -0.306112 0.951762 -0.021088
vn -0.306112 0.951762 -0.021088
vn -0.031563 0.888314 0.458151
vn -0.031563 0.888314 0.458151
vn -0.031563 0.888314 0.458151
vn -0.031563 0.888314 0.458151
vn 0.306840 0.951761 0.000000
vn 0.306840 0.951761 0.000000
vn 0.306840 0.951761 0.000000
vn 0.306840 0.951761 0.000000
vn 0.000000 0.000000 1.000000
vn 0.000000 0.000000 1.000000
vn 0.000000 0.000000 1.000000
vn -0.068728 0.000000 0.997636
vn -0.068728 0.000000 0.997635
vn -0.068728 0.000000 0.997635
vn -0.068728 0.000000 0.997636
vn -0.068728 0.000000 0.997635
vn -0.068728 0.000000 0.997635
vn -0.068728 0.000000 0.997635
vn -0.000000 0.000000 1.000000
vn -0.000000 0.000000 1.000000
vn -0.000000 0.000000 1.000000
vn -0.000000 0.000000 1.000000
vn 1.000000 0.000000 0.000000
vn 1.000000 0.000000 0.000000
vn 1.000000 0.000000 0.000000
vn 1.000000 0.000000 0.000000
vn 0.000000 1.000000 -0.000000
vn 0.000000 1.000000 -0.000000
vn 0.000000 1.000000 -0.000000
vn 0.000000 1.000000 -0.000000
vn 0.000000 1.000000 0.000000
vn 0.000000 1.000000 0.000000
vn 0.000000 1.000000 0.000000
vn 0.068727 0.000000 -0.997636
vn 0.068727 0.000000 -0.997636
vn 0.068727 0.000000 -0.997636
vn 0.068727 0.000000 -0.997636
vn -0.000000 -1.000000 0.000000
vn -0.000000 -1.000000 0.000000
vn -0.000000 -1.000000 0.000000
vn -0.000000 -1.000000 0.000000
vn 0.997635 0.000000 0.068727
vn 0.997635 0.000000 0.068727
vn 0.997635 0.000000 0.068727
vn 0.997635 0.000000 0.068727
vn -0.306111 0.951762 -0.021088
vn -0.306111 0.951762 -0.021088
vn -0.306111 0.951762 -0.021088
vn -0.306111 0.951762 -0.021088
vn 0.000000 0.888313 0.459238
vn 0.000000 0.888313 0.459238
vn -0.000000 0.888310 0.459244
vn -0.000000 0.888313 0.459239
vn 0.000000 1.000000 0.000000
vn 0.000000 1.000000 0.000000
vn 0.000000 1.000000 0.000000
vn 0.000000 1.000000 0.000000
vn 0.000000 1.000000 0.000000
vn 0.000000 -1.000000 -0.000000
vn 0.000000 -1.000000 -0.000000
vn 0.000000 -1.000000 -0.000000
vn 0.000000 0.888313 -0.459239
vn 0.000000 0.888313 -0.459239
vn 0.000000 0.888313 -0.459239
vn 0.000000 0.888313 -0.459239
vn -0.031562 0.888312 0.458155
vn -0.031562 0.888312 0.458155
vn -0.031562 0.888312 0.458155
vn -0.031562 0.888312 0.458155
vn 0.000000 0.000000 1.000000
vn 0.000000 0.000000 1.000000
vn 0.000000 0.000000 1.000000
vn 0.000000 0.000000 1.000000
vn 0.000000 0.000000 1.000000
vn 0.000000 0.000000 1.000000
vn 0.000000 0.000000 1.000000
vn 0.000000 0.000000 1.000000
vn 0.000000 -1.000000 0.000000
vn 0.000000 -1.000000 0.000000
vn 0.000000 -1.000000 0.000000
vn 0.000000 -1.000000 0.000000
vn -1.000000 0.000000 0.000000
vn -1.000000 0.000000 0.000000
vn -1.000000 0.000000 0.000000
vn -1.000000 0.000000 0.000000
vn 0.000000 1.000000 0.000000
vn 0.000000 1.000000 0.000000
vn 0.000000 1.000000 0.000000
vn 0.000000 1.000000 0.000000
vn 0.068728 0.000000 -0.997636
vn 0.068728 0.000000 -0.997636
vn 0.068728 0.000000 -0.997636
vn 0.068728 0.000000 -0.997636
vn -0.000000 -1.000000 0.000000
vn -0.000000 -1.000000 0.000000
vn -0.000000 -1.000000 0.000000
vn -0.000000 1.000000 0.000000
vn -0.000000 1.000000 0.000000
vn 0.000000 0.000000 -1.000000
vn 0.000000 0.000000 -1.000000
vn 0.000000 -1.000000 0.000000
vn 0.000000 -1.000000 0.000000
vn 0.000000 0.000000 1.000000
vn 0.000000 0.000000 1.000000
vn 0.000000 0.000000 1.000000
vn 0.000000 0.000000 1.000000
vn 0.000000 0.000000 1.000000
vn 0.000000 0.000000 1.000000
vn 0.000000 0.000000 1.000000
vn 0.000000 0.000000 1.000000
vn 0.000000 0.000000 1.000000
vn -0.000001 0.888308 0.459249
vn -0.000001 0.888308 0.459249
vn 0.000000 1.000000 -0.000000
vn 0.000000 1.000000 -0.000000
vn 0.000000 1.000000 -0.000000
vn -0.000000 -1.000000 -0.000000
vn -0.000000 -1.000000 -0.000000
vn -0.000000 -1.000000 -0.000000
vn -0.000000 -1.000000 -0.000000
vn -0.000000 -1.000000 -0.000000
vn 0.031562 0.888316 -0.458147
vn 0.031562 0.888316 -0.458147
vn 0.031562 0.888316 -0.458147
vn 0.031562 0.888316 -0.458147
vn -0.068728 0.000000 0.997636
vn -0.068728 0.000000 0.997635
vn -0.068728 0.000000 0.997635
vn 0.000000 0.000000 1.000000
vn 0.000000 0.000000 1.000000
vn 0.000000 0.000000 1.000000
vn 0.000000 0.000000 1.000000
vn 0.000000 -0.816733 -0.577017
vn 0.000000 -0.816733 -0.577017
vn 0.000000 -0.816733 -0.577017
vn 0.000000 -0.816733 -0.577017
vn 0.410819 0.000000 -0.911717
vn 0.410819 0.000000 -0.911717
vn 0.410819 0.000000 -0.911717
vn 0.410819 0.000000 -0.911717
vn 0.000000 0.816733 -0.577017
vn 0.000000 0.816733 -0.577017
vn 0.000000 0.816732 -0.577017
vn 0.000000 0.816732 -0.577017
vn -0.410819 0.000000 -0.911717
vn -0.410819 0.000000 -0.911717
vn -0.410819 0.000000 -0.911717
vn -0.410819 0.000000 -0.911717
vn -0.558337 0.000002 0.829614
vn -0.558337 0.000002 0.829614
vn -0.558337 0.000002 0.829614
vn -0.558337 0.000002 0.829614
vn 0.500000 -0.000002 -0.866026
vn 0.500000 -0.000002 -0.866026
vn 0.500000 -0.000002 -0.866026
vn 0.500000 -0.000002 -0.866026
vn -0.720056 0.000003 -0.693916
vn -0.720056 0.000003 -0.693916
vn -0.720056 0.000003 -0.693916
vn -0.720056 0.000003 -0.693916
vn 0.642788 0.000004 -0.766044
vn 0.642788 0.000004 -0.766045
vn 0.642788 0.000004 -0.766045
vn 0.642788 0.000004 -0.766044
vn -0.693916 0.000000 0.720056
vn -0.693916 0.000000 0.720056
vn -0.693916 0.000000 0.720056
vn -0.693916 0.000000 0.720056
vn -0.693923 0.000000 0.720050
vn -0.693923 0.000000 0.720050
vn -0.693923 0.000000 0.720050
vn -0.693923 0.000000 0.720050
vn -0.693923 0.000000 0.720050
vn -0.558335 0.000000 0.829615
vn -0.558335 0.000000 0.829615
vn -0.558335 0.000000 0.829615
vn 0.499994 0.000000 -0.866029
vn 0.499994 0.000000 -0.866029
vn 0.499994 0.000000 -0.866029
vn 0.766044 -0.000006 0.642788
vn 0.766045 -0.000006 0.642788
vn 0.766044 -0.000006 0.642788
vn 0.766044 -0.000006 0.642788
s 1
g broken_tv group3
usemtl initialShadingGroup
f 9/21/1 53/22/2 54/23/3 37/24/4 12/25/5
s 2
f 3/92/6 35/93/7 36/94/8 5/95/9
s 3
f 5/33/10 36/34/11 57/35/12 56/36/13 7/37/14
s off
f 2/1/15 8/2/16 45/3/17 46/4/18
f 7/5/19 1/6/20 3/7/21 5/8/22
f 1/26/23 55/27/24 53/22/25 9/21/26
f 2/40/27 46/41/28 52/42/29 10/43/30
f 4/48/31 60/49/32 61/50/33 11/51/34
f 3/31/35 1/26/36 9/21/37 12/25/38
f 7/101/39 56/102/40 13/103/41
f 8/107/42 2/108/43 65/109/44 66/110/45
f 2/108/46 67/111/47 65/109/48
f 1/104/49 7/101/50 13/103/51 16/105/52
f 14/9/53 15/10/54 19/11/55 18/12/56
f 15/55/57 16/56/58 20/57/59 19/58/60
f 26/61/61 33/62/62 32/63/63
f 22/116/64 21/117/65 30/118/66 31/119/67
f 24/66/68 63/67/69 62/68/70 6/69/71
f 23/13/72 24/14/73 6/15/74 4/16/75
f 25/53/76 23/54/77 4/48/78 11/51/79
s 4
f 50/29/80 49/32/81 35/30/82 37/24/83
s off
f 51/44/84 69/45/85 68/46/86 10/43/87 52/42/88
f 28/70/89 44/71/90 41/72/91
f 29/73/92 27/74/93 40/75/94 42/76/95
f 32/63/96 30/64/97 21/65/98 26/61/99
f 13/120/100 28/121/101 41/122/102 38/123/103 14/124/104
f 16/105/105 55/106/106 1/104/107
f 13/78/108 14/79/109 18/80/110 17/81/111
f 16/17/112 13/18/113 17/19/114 20/20/115
f 61/50/116 64/52/117 25/53/118 11/51/119
f 62/130/120 60/131/121 4/132/122 6/133/123
f 31/84/124 34/85/125 22/86/126
s 1
f 37/24/4 54/23/3 59/28/127 50/29/128
s 2
f 36/94/8 35/93/7 49/96/129 48/97/130
s 3
f 57/35/12 36/34/11 48/38/131 58/39/132
s off
f 38/123/133 39/125/134 15/126/135 14/124/136
f 39/125/137 40/127/138 27/128/139 16/129/140 15/126/141
s 4
f 37/24/83 35/30/82 3/31/142 12/25/143
s off
f 42/76/144 43/77/145 29/73/146
f 70/87/147 71/88/148 47/89/149 45/90/150 8/91/151
f 68/46/152 67/47/153 2/40/154 10/43/155
f 66/110/156 70/113/157 8/107/158
f 72/134/159 73/135/160 74/136/161 75/137/162
f 17/81/163 18/80/164 73/82/165 72/83/166
f 18/138/167 19/139/168 74/140/169 73/141/170
f 19/58/171 20/57/172 75/59/173 74/60/174
f 20/142/175 17/143/176 72/144/177 75/145/178
f 22/154/179 34/157/180 33/158/181 26/155/182
f 58/99/183 48/97/184 50/98/185 59/100/186
f 47/146/187 71/147/188 69/148/189 51/149/190
f 43/150/191 42/151/192 41/152/193 44/153/194
f 68/112/195 69/114/196 71/115/197 70/113/198
f 66/110/199 65/109/200 67/111/201 68/112/202 70/113/203
f 22/154/204 26/155/205 21/156/206
f 48/97/207 49/96/208 50/98/209
f 57/159/210 58/160/211 59/161/212 54/162/213
