# This file uses meters as units for non-parametric coordinates.

mtllib frame_2.mtl
g default
v -1201.247314 280.066864 0.924011
v -1200.967041 280.017365 -89.638229
v -1201.084229 370.629364 0.875061
v -1200.804199 370.579926 -89.687180
v -1211.299316 370.647736 0.843414
v -1211.019043 370.598236 -89.718857
v -1211.461914 280.085175 0.892456
v -1211.181641 280.035675 -89.669815
v -1204.256104 284.105621 -3.123138
v -1204.000977 284.060516 -85.614136
v -1203.852539 366.551971 -85.658859
v -1204.107910 366.597076 -3.167755
vt 0.036901 0.035436
vt 0.648766 0.036901
vt 0.647305 0.648769
vt 0.035440 0.647303
vt 0.001261 0.000000
vt 0.684206 0.001261
vt 0.682944 0.684206
vt 0.000000 0.682944
vt 0.763435 0.000000
vt 0.765504 0.668836
vt 0.690063 0.669070
vt 0.687993 0.000234
vt 0.846975 0.000233
vt 0.844905 0.669069
vt 0.769466 0.668836
vt 0.771536 0.000000
vt 0.998798 0.668974
vt 0.923359 0.668838
vt 0.924559 0.000000
vt 1.000000 0.000135
vt 0.846412 0.170451
vt 0.921851 0.170316
vt 0.923055 0.839153
vt 0.847613 0.839289
vn 0.999994 -0.001797 0.003095
vn 0.999994 -0.001797 0.003095
vn 0.999994 -0.001797 0.003095
vn 0.999994 -0.001797 0.003095
vn 0.001797 0.999998 -0.000541
vn 0.001797 0.999998 -0.000541
vn 0.001797 0.999998 -0.000541
vn 0.001797 0.999998 -0.000541
vn 0.003096 -0.000547 -0.999995
vn 0.003096 -0.000547 -0.999995
vn 0.003096 -0.000547 -0.999995
vn 0.003096 -0.000547 -0.999995
vn -0.003093 0.000547 0.999995
vn -0.003093 0.000547 0.999995
vn -0.003093 0.000547 0.999995
vn -0.003093 0.000547 0.999995
vn 0.800889 0.598809 0.002151
vn 0.800889 0.598809 0.002151
vn 0.800889 0.598809 0.002151
vn 0.800889 0.598809 0.002151
vn 0.797950 -0.001109 0.602723
vn 0.797950 -0.001109 0.602723
vn 0.797950 -0.001109 0.602723
vn 0.797950 -0.001109 0.602723
vn 0.798714 -0.601704 0.002800
vn 0.798714 -0.601704 0.002800
vn 0.798714 -0.601704 0.002800
vn 0.798714 -0.601704 0.002800
vn 0.801660 -0.001765 -0.597778
vn 0.801660 -0.001765 -0.597778
vn 0.801660 -0.001765 -0.597778
vn 0.801660 -0.001765 -0.597778
vn -0.001794 -0.999998 0.000541
vn -0.001794 -0.999998 0.000541
vn -0.001794 -0.999998 0.000541
vn -0.001794 -0.999998 0.000541
s off
g polySurface171 pasted__pCube6
usemtl initialShadingGroup
f 9/1/1 10/2/2 11/3/3 12/4/4
f 3/9/5 4/10/6 6/11/7 5/12/8
f 2/17/9 8/18/10 6/19/11 4/20/12
f 7/21/13 1/22/14 3/23/15 5/24/16
f 1/5/17 2/6/18 10/2/19 9/1/20
f 2/6/21 4/7/22 11/3/23 10/2/24
f 4/7/25 3/8/26 12/4/27 11/3/28
f 3/8/29 1/5/30 9/1/31 12/4/32
f 2/13/33 1/14/34 7/15/35 8/16/36
