# This file uses meters as units for non-parametric coordinates.

mtllib frame_3.mtl
g default
v -1201.247314 438.060577 -140.396729
v -1200.967041 438.011078 -291.224976
v -1201.084229 528.623047 -140.478271
v -1200.804199 528.573608 -291.306519
v -1211.299316 528.641418 -140.530945
v -1211.019043 528.591919 -291.359253
v -1211.461914 438.078888 -140.449280
v -1211.181641 438.029388 -291.277588
v -1204.256104 442.099335 -147.137146
v -1204.000977 442.054230 -284.523010
v -1203.852539 524.545654 -284.597473
v -1204.107910 524.590759 -147.211426
vt 0.032232 0.952197
vt 0.033562 0.046944
vt 0.576831 0.047663
vt 0.575509 0.952932
vt 0.000000 0.999544
vt 0.001324 0.000000
vt 0.609060 0.000441
vt 0.607751 1.000000
vt 0.678841 0.000000
vt 0.680681 0.991296
vt 0.613546 0.991643
vt 0.611703 0.000346
vt 0.750875 0.000346
vt 0.749033 0.991642
vt 0.681899 0.991297
vt 0.683741 0.000000
vt 0.889425 0.595330
vt 0.822290 0.595209
vt 0.823356 0.000000
vt 0.890493 0.000121
vt 0.752094 0.000121
vt 0.819229 0.000000
vt 0.820299 0.595209
vt 0.753161 0.595330
vn 0.999997 -0.001796 0.001858
vn 0.999997 -0.001796 0.001858
vn 0.999997 -0.001796 0.001858
vn 0.999997 -0.001796 0.001858
vn 0.001797 0.999998 -0.000325
vn 0.001797 0.999998 -0.000325
vn 0.001797 0.999998 -0.000325
vn 0.001797 0.999998 -0.000325
vn 0.005154 -0.000910 -0.999986
vn 0.005154 -0.000910 -0.999986
vn 0.005154 -0.000910 -0.999986
vn 0.005154 -0.000910 -0.999986
vn -0.005148 0.000910 0.999986
vn -0.005148 0.000910 0.999986
vn -0.005148 0.000910 0.999986
vn -0.005148 0.000910 0.999986
vn 0.800893 0.598806 0.001291
vn 0.800893 0.598806 0.001291
vn 0.800893 0.598806 0.001291
vn 0.800893 0.598806 0.001291
vn 0.910714 -0.001266 0.413035
vn 0.910714 -0.001266 0.413035
vn 0.910714 -0.001266 0.413035
vn 0.910714 -0.001266 0.413035
vn 0.798723 -0.601697 0.001681
vn 0.798723 -0.601697 0.001681
vn 0.798723 -0.601697 0.001681
vn 0.798723 -0.601697 0.001681
vn 0.912694 -0.002010 -0.408639
vn 0.912694 -0.002010 -0.408639
vn 0.912694 -0.002010 -0.408639
vn 0.912694 -0.002010 -0.408639
vn -0.001794 -0.999998 0.000325
vn -0.001794 -0.999998 0.000325
vn -0.001794 -0.999998 0.000325
vn -0.001794 -0.999998 0.000325
s off
g polySurface172 pasted__pCube6
usemtl initialShadingGroup
f 9/1/1 10/2/2 11/3/3 12/4/4
f 3/9/5 4/10/6 6/11/7 5/12/8
f 2/17/9 8/18/10 6/19/11 4/20/12
f 7/21/13 1/22/14 3/23/15 5/24/16
f 1/5/17 2/6/18 10/2/19 9/1/20
f 2/6/21 4/7/22 11/3/23 10/2/24
f 4/7/25 3/8/26 12/4/27 11/3/28
f 3/8/29 1/5/30 9/1/31 12/4/32
f 2/13/33 1/14/34 7/15/35 8/16/36
g default
v -1201.247314 438.060577 -140.396729
v -1200.967041 438.011078 -291.224976
v -1201.084229 528.623047 -140.478271
v -1200.804199 528.573608 -291.306519
v -1211.299316 528.641418 -140.530945
v -1211.019043 528.591919 -291.359253
v -1211.461914 438.078888 -140.449280
v -1211.181641 438.029388 -291.277588
v -1204.256104 442.099335 -147.137146
v -1204.000977 442.054230 -284.523010
v -1203.852539 524.545654 -284.597473
v -1204.107910 524.590759 -147.211426
vt 0.032232 0.952197
vt 0.033562 0.046944
vt 0.576831 0.047663
vt 0.575509 0.952932
vt 0.000000 0.999544
vt 0.001324 0.000000
vt 0.609060 0.000441
vt 0.607751 1.000000
vt 0.678841 0.000000
vt 0.680681 0.991296
vt 0.613546 0.991643
vt 0.611703 0.000346
vt 0.750875 0.000346
vt 0.749033 0.991642
vt 0.681899 0.991297
vt 0.683741 0.000000
vt 0.889425 0.595330
vt 0.822290 0.595209
vt 0.823356 0.000000
vt 0.890493 0.000121
vt 0.752094 0.000121
vt 0.819229 0.000000
vt 0.820299 0.595209
vt 0.753161 0.595330
vn 0.999997 -0.001796 0.001858
vn 0.999997 -0.001796 0.001858
vn 0.999997 -0.001796 0.001858
vn 0.999997 -0.001796 0.001858
vn 0.001797 0.999998 -0.000325
vn 0.001797 0.999998 -0.000325
vn 0.001797 0.999998 -0.000325
vn 0.001797 0.999998 -0.000325
vn 0.005154 -0.000910 -0.999986
vn 0.005154 -0.000910 -0.999986
vn 0.005154 -0.000910 -0.999986
vn 0.005154 -0.000910 -0.999986
vn -0.005148 0.000910 0.999986
vn -0.005148 0.000910 0.999986
vn -0.005148 0.000910 0.999986
vn -0.005148 0.000910 0.999986
vn 0.800893 0.598806 0.001291
vn 0.800893 0.598806 0.001291
vn 0.800893 0.598806 0.001291
vn 0.800893 0.598806 0.001291
vn 0.910714 -0.001266 0.413035
vn 0.910714 -0.001266 0.413035
vn 0.910714 -0.001266 0.413035
vn 0.910714 -0.001266 0.413035
vn 0.798723 -0.601697 0.001681
vn 0.798723 -0.601697 0.001681
vn 0.798723 -0.601697 0.001681
vn 0.798723 -0.601697 0.001681
vn 0.912694 -0.002010 -0.408639
vn 0.912694 -0.002010 -0.408639
vn 0.912694 -0.002010 -0.408639
vn 0.912694 -0.002010 -0.408639
vn -0.001794 -0.999998 0.000325
vn -0.001794 -0.999998 0.000325
vn -0.001794 -0.999998 0.000325
vn -0.001794 -0.999998 0.000325
s off
g polySurface172 pasted__pCube6
f 21/25/37 22/26/38 23/27/39 24/28/40
f 15/33/41 16/34/42 18/35/43 17/36/44
f 14/41/45 20/42/46 18/43/47 16/44/48
f 19/45/49 13/46/50 15/47/51 17/48/52
f 13/29/53 14/30/54 22/26/55 21/25/56
f 14/30/57 16/31/58 23/27/59 22/26/60
f 16/31/61 15/32/62 24/28/63 23/27/64
f 15/32/65 13/29/66 21/25/67 24/28/68
f 14/37/69 13/38/70 19/39/71 20/40/72
