# This file uses meters as units for non-parametric coordinates.

mtllib monitor.mtl
g default
v -5.145195 141.924606 -210.367706
v -5.145195 130.677292 -210.367706
v -5.145164 141.924606 -133.782990
v -5.145187 130.677292 -133.782990
v 6.102028 141.924606 -133.782898
v 6.102005 130.677292 -133.782898
v 6.101997 141.924606 -210.367615
v 6.101997 130.677292 -210.367615
v 2.389503 141.924606 -152.931091
v 2.389484 141.924606 -191.219666
v 13.636799 141.924606 -191.219543
v 13.636818 141.924606 -152.930969
v 13.636799 130.677292 -191.219543
v 13.636806 130.677292 -152.930969
v 2.389484 130.677292 -191.219666
v 2.389492 130.677292 -152.931091
v -14.815460 141.924606 -121.523315
v -14.815460 130.677292 -121.523315
v -3.568146 130.677292 -121.523346
v -3.568146 141.924606 -121.523346
v -3.568169 141.924606 -222.627228
v -3.568169 130.677292 -222.627228
v -14.815483 130.677292 -222.627197
v -14.815483 141.924606 -222.627197
v -38.479523 167.945297 -258.381836
v -38.479523 167.945297 -85.768799
v -38.479523 258.791504 -258.381836
v -38.479523 258.791504 -85.768799
v -39.867706 160.753738 -261.162476
v -39.867706 160.753738 -82.988037
v -39.867706 261.173889 -261.162476
v -39.867706 261.173889 -82.988037
v -23.652863 261.173889 -261.162537
v -23.652863 261.173889 -82.988098
v -23.652863 160.753738 -261.162537
v -23.652863 160.753738 -82.988098
v -39.864532 167.945297 -258.381897
v -39.864532 167.945297 -85.768860
v -39.864532 258.791687 -85.768860
v -39.864532 258.791687 -258.381897
v -22.561310 167.945297 -258.381897
v -22.561310 167.945297 -85.768860
v -22.561310 258.791687 -85.768860
v -22.561310 258.791687 -258.381897
v 2.216026 227.431900 -227.420563
v 2.216034 227.431900 -116.730133
v 2.216034 194.495712 -116.730133
v 2.216026 194.495712 -227.420563
v 2.389478 141.730301 -177.699036
v 2.389483 141.730301 -166.451721
v 2.389478 218.315018 -177.699036
v 2.389483 218.315018 -166.451721
v 13.636792 218.315018 -177.698914
v 13.636798 218.315018 -166.451599
v 13.636792 141.730301 -177.698914
v 13.636798 141.730301 -166.451599
vt 0.282013 0.611045
vt 0.279437 0.720025
vt 0.247424 0.719269
vt 0.250000 0.610289
vt 0.278053 0.778594
vt 0.246040 0.777837
vt 0.251384 0.551720
vt 0.283397 0.552477
vt 0.277003 0.823037
vt 0.244990 0.822280
vt 0.252434 0.507277
vt 0.284447 0.508033
vt 0.213292 0.369848
vt 0.181293 0.368655
vt 0.183474 0.310111
vt 0.215474 0.311303
vt 0.185130 0.265686
vt 0.217130 0.266879
vt 0.180286 0.346279
vt 0.148272 0.346977
vt 0.146994 0.288406
vt 0.179008 0.287708
vt 0.181256 0.390724
vt 0.149242 0.391422
vt 0.548778 0.491443
vt 0.548778 0.000000
vt 0.807424 0.000000
vt 0.807424 0.491443
vt 0.289088 0.491443
vt 0.289088 0.000000
vt 0.547735 0.000000
vt 0.547735 0.491443
vt 0.000000 0.507277
vt 0.000000 0.000000
vt 0.020475 0.007917
vt 0.020475 0.499361
vt 0.285904 0.000000
vt 0.279122 0.007917
vt 0.285904 0.507277
vt 0.279122 0.499361
vt 0.960361 0.000000
vt 0.992383 0.000000
vt 0.992383 0.218043
vt 0.960361 0.218043
vt 0.509565 0.689875
vt 0.509565 0.580864
vt 0.541587 0.580864
vt 0.541587 0.689874
vt 0.488113 0.526348
vt 0.520135 0.526347
vt 0.520135 0.744390
vt 0.488113 0.744391
vt 0.460581 0.491443
vt 0.492603 0.491443
vt 0.492603 0.779294
vt 0.460581 0.779294
vt 0.793768 0.730893
vt 0.824931 0.224574
vt 0.871009 0.227410
vt 0.839846 0.733729
vt 0.985929 0.330731
vt 0.966569 0.645280
vt 0.597565 0.493020
vt 0.580216 1.000000
vt 0.534078 0.998421
vt 0.551427 0.491441
vt 0.715259 0.593169
vt 0.704481 0.908130
vt 0.034299 0.499361
vt 0.034299 0.007917
vt 0.083562 0.007917
vt 0.083562 0.499361
vt 0.715371 0.982887
vt 0.715371 0.491443
vt 0.764635 0.491443
vt 0.764635 0.982887
vt 0.240090 0.039940
vt 0.240090 0.007918
vt 0.272112 0.007917
vt 0.272112 0.039939
vt 0.257413 0.071962
vt 0.225391 0.071962
vt 0.225391 0.039940
vt 0.257413 0.039940
vt 0.205792 0.007917
vt 0.237814 0.007917
vt 0.237814 0.039939
vt 0.205792 0.039939
vt 0.289088 0.491887
vt 0.335251 0.491443
vt 0.337999 0.777334
vt 0.291836 0.777778
vt 0.457219 0.586342
vt 0.458120 0.680109
vt 0.134183 0.296770
vt 0.088196 0.292713
vt 0.113318 0.007915
vt 0.159304 0.011971
vt 0.271445 0.118302
vt 0.263206 0.211711
vt 0.220491 0.498493
vt 0.220491 0.239846
vt 0.269755 0.239846
vt 0.269755 0.498493
vt 0.906463 0.258647
vt 0.906463 0.000000
vt 0.955727 0.000000
vt 0.955727 0.258647
vt 0.842766 0.000000
vt 0.874788 0.000000
vt 0.874788 0.218043
vt 0.842766 0.218043
vt 0.840489 0.218043
vt 0.808467 0.218043
vt 0.808467 0.000000
vt 0.840489 0.000000
vn 0.000003 0.000000 1.000000
vn 0.000003 0.000000 1.000000
vn 0.000003 0.000000 1.000000
vn 0.000003 0.000000 1.000000
vn 0.000000 0.000000 -1.000000
vn 0.000000 0.000000 -1.000000
vn 0.000000 0.000000 -1.000000
vn 0.000000 0.000000 -1.000000
vn -0.991505 0.000000 -0.130069
vn -0.991505 0.000000 0.130069
vn -0.991505 0.000000 0.130069
vn -0.991505 0.000000 -0.130069
vn 0.000000 1.000000 0.000000
vn 0.000000 1.000000 0.000000
vn 0.000000 1.000000 0.000000
vn 0.000000 1.000000 0.000000
vn -0.877032 0.000000 0.480433
vn -0.877032 0.000000 0.480433
vn -0.991505 0.000000 0.130069
vn -0.991505 0.000000 0.130069
vn 0.991505 0.000000 -0.130069
vn 0.991505 0.000000 -0.130069
vn 0.877032 0.000000 -0.480433
vn 0.877032 0.000000 -0.480433
vn 0.000000 1.000000 0.000000
vn 0.000000 1.000000 0.000000
vn 0.000000 1.000000 0.000000
vn 0.000000 1.000000 0.000000
vn 0.000000 1.000000 0.000000
vn 0.000000 1.000000 0.000000
vn 0.000000 1.000000 0.000000
vn 0.000000 1.000000 0.000000
vn 0.877032 0.000000 0.480433
vn 0.877032 0.000000 0.480433
vn 0.991505 0.000000 0.130069
vn 0.991505 0.000000 0.130069
vn -0.991505 0.000000 -0.130069
vn -0.991505 0.000000 -0.130069
vn -0.877032 0.000000 -0.480433
vn -0.877032 0.000000 -0.480433
vn -0.877032 0.000000 -0.480433
vn -0.877032 0.000000 -0.480433
vn -0.785144 0.000000 -0.619313
vn -0.785144 0.000000 -0.619313
vn 0.877032 0.000000 0.480433
vn 0.877032 0.000000 0.480433
vn 0.785144 0.000000 0.619313
vn 0.785144 0.000000 0.619313
vn 0.000000 1.000000 0.000000
vn 0.000000 1.000000 0.000000
vn 0.000000 1.000000 0.000000
vn 0.000000 1.000000 0.000000
vn 0.877032 0.000000 -0.480433
vn 0.877032 0.000000 -0.480433
vn 0.785144 0.000000 -0.619313
vn 0.785144 0.000000 -0.619313
vn -0.877032 0.000000 0.480433
vn -0.877032 0.000000 0.480433
vn -0.785144 0.000000 0.619313
vn -0.785144 0.000000 0.619313
vn 0.000000 1.000000 0.000000
vn 0.000000 1.000000 0.000000
vn 0.000000 1.000000 0.000000
vn 0.000000 1.000000 0.000000
vn -1.000000 0.000000 -0.000000
vn -1.000000 0.000000 -0.000000
vn -1.000000 0.000000 -0.000000
vn -1.000000 0.000000 -0.000000
vn -1.000000 0.000000 0.000000
vn -1.000000 0.000000 0.000000
vn -1.000000 0.000000 0.000000
vn -1.000000 0.000000 0.000000
vn 0.000000 1.000000 0.000000
vn 0.000000 1.000000 0.000000
vn 0.000000 1.000000 0.000000
vn 0.000000 1.000000 0.000000
vn 0.000000 -1.000000 0.000000
vn 0.000000 -1.000000 0.000000
vn 0.000000 -1.000000 0.000000
vn 0.000000 -1.000000 0.000000
vn -0.000000 0.000000 1.000000
vn -0.000000 0.000000 1.000000
vn -0.000000 0.000000 1.000000
vn -0.000000 0.000000 1.000000
vn 0.000000 0.000000 -1.000000
vn 0.000000 0.000000 -1.000000
vn 0.000000 0.000000 -1.000000
vn 0.000000 0.000000 -1.000000
vn -1.000000 0.000400 0.000067
vn -1.000000 0.000400 -0.000067
vn -1.000000 0.000327 -0.000255
vn -1.000000 0.000327 0.000255
vn -1.000000 0.000400 -0.000067
vn -1.000000 -0.000725 -0.000481
vn -1.000000 -0.000806 -0.000412
vn -1.000000 0.000327 -0.000255
vn -1.000000 -0.000725 -0.000481
vn -1.000000 -0.000725 0.000481
vn -1.000000 -0.000806 0.000412
vn -1.000000 -0.000806 -0.000412
vn -1.000000 -0.000725 0.000481
vn -1.000000 0.000400 0.000067
vn -1.000000 0.000327 0.000255
vn -1.000000 -0.000806 0.000412
vn 0.000000 1.000000 0.000000
vn 0.000000 1.000000 0.000000
vn 0.000000 1.000000 0.000000
vn 0.000000 1.000000 0.000000
vn 0.000000 0.000000 -1.000000
vn 0.000000 0.000000 -1.000000
vn 0.000000 0.000000 -1.000000
vn 0.000000 0.000000 -1.000000
vn 0.000000 -1.000000 0.000000
vn 0.000000 -1.000000 0.000000
vn 0.000000 -1.000000 0.000000
vn 0.000000 -1.000000 0.000000
vn -0.000000 0.000000 1.000000
vn -0.000000 0.000000 1.000000
vn -0.000000 0.000000 1.000000
vn -0.000000 0.000000 1.000000
vn 0.793606 -0.608432 0.000000
vn 0.793606 -0.608432 0.000000
vn 0.793606 -0.608432 0.000000
vn 0.793606 -0.608432 0.000000
vn 0.793606 0.000000 -0.608432
vn 0.793606 0.000000 -0.608432
vn 0.793606 0.000000 -0.608432
vn 0.793606 0.000000 -0.608432
vn 0.793606 0.608432 0.000000
vn 0.793606 0.608432 0.000000
vn 0.793606 0.608432 0.000000
vn 0.793606 0.608432 0.000000
vn 0.793606 0.000000 0.608432
vn 0.793606 0.000000 0.608432
vn 0.793606 0.000000 0.608432
vn 0.793606 0.000000 0.608432
vn -1.000000 0.000000 0.000001
vn -1.000000 0.000000 0.000001
vn -1.000000 0.000000 0.000001
vn -1.000000 0.000000 0.000001
vn 0.000000 1.000000 0.000000
vn 0.000000 1.000000 0.000000
vn 0.000000 1.000000 0.000000
vn 0.000000 1.000000 0.000000
vn -0.000000 0.000000 1.000000
vn -0.000000 0.000000 1.000000
vn -0.000000 0.000000 1.000000
vn -0.000000 0.000000 1.000000
vn 0.000000 0.000000 -1.000000
vn 0.000000 0.000000 -1.000000
vn 0.000000 0.000000 -1.000000
vn 0.000000 0.000000 -1.000000
s off
g polySurface27
usemtl initialShadingGroup
f 17/81/1 18/82/2 19/83/3 20/84/4
f 21/85/5 22/86/6 23/87/7 24/88/8
f 9/1/9 10/2/10 15/3/11 16/4/12
f 10/45/13 9/46/14 12/47/15 11/48/16
f 1/5/17 2/6/18 15/3/19 10/2/20
f 11/13/21 13/14/22 8/15/23 7/16/24
f 7/51/25 1/52/26 10/45/27 11/48/28
f 12/47/29 9/46/30 3/49/31 5/50/32
f 5/19/33 6/20/34 14/21/35 12/22/36
f 9/1/37 16/4/38 4/7/39 3/8/40
f 3/8/41 4/7/42 18/11/43 17/12/44
f 6/20/45 5/19/46 20/23/47 19/24/48
f 5/50/49 3/49/50 17/53/51 20/54/52
f 7/16/53 8/15/54 22/17/55 21/18/56
f 2/6/57 1/5/58 24/9/59 23/10/60
f 1/52/61 7/51/62 21/55/63 24/56/64
f 25/25/65 26/26/66 28/27/67 27/28/68
f 41/29/69 42/30/70 43/31/71 44/32/72
f 31/57/73 32/58/74 34/59/75 33/60/76
f 35/63/77 36/64/78 30/65/79 29/66/80
f 30/89/81 36/90/82 34/91/83 32/92/84
f 35/95/85 29/96/86 31/97/87 33/98/88
f 29/33/89 30/34/90 38/35/91 37/36/92
f 30/34/93 32/37/94 39/38/95 38/35/96
f 32/37/97 31/39/98 40/40/99 39/38/100
f 31/39/101 29/33/102 37/36/103 40/40/104
f 37/69/105 38/70/106 42/71/107 41/72/108
f 38/101/109 39/102/110 43/103/111 42/104/112
f 39/73/113 40/74/114 44/75/115 43/76/116
f 40/105/117 37/106/118 41/107/119 44/108/120
f 36/64/121 35/63/122 48/67/123 47/68/124
f 35/95/125 33/98/126 45/99/127 48/100/128
f 34/59/129 46/61/130 45/62/131 33/60/132
f 36/90/133 47/93/134 46/94/135 34/91/136
f 49/41/137 50/42/138 52/43/139 51/44/140
f 51/77/141 52/78/142 54/79/143 53/80/144
f 50/109/145 56/110/146 54/111/147 52/112/148
f 55/113/149 49/114/150 51/115/151 53/116/152
