# This file uses meters as units for non-parametric coordinates.

mtllib bed.mtl
g default
v -488.483667 -25.052435 -497.172281
v 40.935715 -1.577526 -497.172281
v -486.438903 -8.747715 -497.172281
v 43.247749 16.855492 -497.172281
v -486.438903 -8.747715 -846.840445
v 43.247749 16.855492 -846.840263
v -488.483667 -25.052435 -846.840445
v 40.935897 -1.577526 -846.840263
v -412.382237 -64.254176 -497.172281
v -399.558399 38.006445 -497.172281
v -399.558399 38.006445 -846.840445
v -412.382237 -64.254176 -846.840445
v -60.377511 -53.035623 -497.172281
v -46.268382 59.470634 -497.172281
v -46.268382 59.470634 -846.840263
v -60.377511 -53.035623 -846.840263
v -353.420199 -89.426216 -497.172281
v -333.555424 68.969459 -497.172281
v -333.555424 68.969459 -846.840263
v -353.420199 -89.426216 -846.840263
v -128.308968 -82.203405 -497.172281
v -107.635299 82.647114 -497.172281
v -107.635299 82.647114 -846.840263
v -128.308968 -82.203405 -846.840263
v -247.277411 -107.655887 -497.172281
v -215.454743 97.590211 -497.172281
v -215.454743 97.590211 -846.840263
v -247.277411 -107.655887 -846.840263
v -22.637853 31.208975 -507.061790
v 459.194697 64.559221 -499.025360
v -23.838476 48.444823 -509.046596
v 457.837274 84.044964 -501.269259
v -15.865820 11.577469 -834.039318
v 465.809566 47.177633 -826.261800
v -14.665198 -5.658402 -832.054512
v 467.167353 27.691867 -824.018083
v 54.662927 -8.918119 -500.613714
v 47.131421 99.182403 -513.061267
v 55.103531 62.315049 -838.054172
v 62.635401 -45.785473 -825.606073
v 375.856465 8.624652 -494.724342
v 367.570209 127.556053 -508.419394
v 375.542864 90.688699 -833.412117
v 383.828939 -28.242724 -819.717064
v 113.573183 -34.520849 -496.264002
v 101.907088 132.920720 -515.544818
v 109.879743 96.053367 -840.537541
v 121.545657 -71.388209 -821.256906
v 318.970443 -23.251002 -492.503881
v 306.828859 151.014065 -512.570516
v 314.801514 114.146711 -837.562876
v 326.942735 -60.118350 -817.496422
v 230.785934 -46.654688 -492.012403
v 216.274720 161.626936 -515.995779
v 224.247012 124.759559 -840.988501
v 238.758226 -83.522036 -817.004944
v -527.742273 -161.626936 741.302692
v -422.204520 -161.626936 846.840445
v -474.973396 -161.626936 832.701155
v -513.602983 -161.626936 794.071568
v -527.742273 -24.612786 741.302692
v -513.602983 -24.612786 794.071568
v -474.973396 -24.612786 832.701155
v -422.204520 -24.612786 846.840445
v 527.742636 -161.626936 741.302692
v 513.603164 -161.626936 794.071568
v 474.973578 -161.626936 832.701155
v 422.204701 -161.626936 846.840445
v 527.742636 -24.612786 741.302692
v 422.204701 -24.612786 846.840445
v 474.973578 -24.612786 832.701155
v 513.603164 -24.612786 794.071568
v -474.973396 -24.612786 -824.332956
v -513.602983 -24.612786 -785.703369
v -527.742636 -24.612786 -732.934311
v -422.204520 -24.612786 -838.472427
v -527.742636 -161.626936 -732.934311
v -513.602983 -161.626936 -785.703369
v -474.973396 -161.626936 -824.332956
v -422.204520 -161.626936 -838.472427
v 513.603346 -24.612786 -785.703551
v 474.973578 -24.612786 -824.332774
v 422.204701 -24.612786 -838.472427
v 527.742636 -24.612786 -732.934311
v 527.742636 -161.626936 -732.934311
v 422.204701 -161.626936 -838.472427
v 474.973578 -161.626936 -824.332774
v 513.603346 -161.626936 -785.703551
v 457.062175 -28.727774 -793.089340
v 494.234954 -28.727774 -755.916562
v 406.283374 -28.727774 -806.695363
v -406.283192 -28.727774 -806.695363
v -457.062175 -28.727774 -793.089340
v -494.234954 -28.727774 -755.916562
v -507.841158 -28.727774 -705.137579
v -507.841158 -28.727774 713.505597
v -494.234954 -28.727774 764.284580
v -457.062175 -28.727774 801.457721
v -406.283192 -28.727774 815.063926
v 406.283374 -28.727774 815.063926
v 457.062175 -28.727774 801.457721
v 494.234954 -28.727774 764.284580
v 507.841158 -28.727774 713.505597
v 507.841158 -28.727774 -705.137579
vt 0.982031 0.164170
vt 0.982065 0.000004
vt 0.990787 0.000006
vt 0.990753 0.164172
vt 0.992001 0.164170
vt 0.992031 0.000004
vt 0.999746 0.000006
vt 0.999716 0.164172
vt 0.986581 0.376556
vt 0.974209 0.223450
vt 0.983410 0.222707
vt 0.995782 0.375813
vt 0.939569 0.380355
vt 0.927197 0.227249
vt 0.000000 0.941387
vt 0.015447 0.788561
vt 0.023570 0.789382
vt 0.008124 0.942209
vt 0.064365 0.793505
vt 0.048918 0.946332
vt 0.094437 0.796545
vt 0.078991 0.949371
vt 0.578282 0.743280
vt 0.513969 0.744619
vt 0.499561 0.052629
vt 0.563874 0.051290
vt 0.514503 0.770262
vt 0.578816 0.768923
vt 0.563340 0.025647
vt 0.499027 0.026986
vt 0.515037 0.795905
vt 0.579350 0.794566
vt 0.562806 0.000004
vt 0.498493 0.001343
vt 0.648017 0.743281
vt 0.583704 0.744615
vt 0.569346 0.052624
vt 0.633659 0.051290
vt 0.648549 0.768924
vt 0.584237 0.770258
vt 0.568814 0.026982
vt 0.633127 0.025647
vt 0.649082 0.794567
vt 0.584769 0.795901
vt 0.568282 0.001339
vt 0.632595 0.000004
vt 0.648041 0.532417
vt 0.648184 0.486096
vt 0.812349 0.486605
vt 0.812206 0.532925
vt 0.648290 0.451868
vt 0.812455 0.452377
vt 0.648467 0.394816
vt 0.812632 0.395325
vt 0.648626 0.343712
vt 0.812791 0.344221
vt 0.648721 0.312915
vt 0.812886 0.313424
vt 0.648865 0.266369
vt 0.813030 0.266878
vt 0.643056 0.266030
vt 0.643255 0.225840
vt 0.807419 0.226655
vt 0.807220 0.266846
vt 0.643405 0.195741
vt 0.807569 0.196557
vt 0.643656 0.145179
vt 0.807820 0.145995
vt 0.643940 0.088061
vt 0.808104 0.088877
vt 0.644112 0.053353
vt 0.808276 0.054168
vt 0.644377 0.000004
vt 0.808541 0.000820
vt 0.648041 0.732396
vt 0.649389 0.691416
vt 0.802911 0.696467
vt 0.801563 0.737447
vt 0.650383 0.661206
vt 0.803905 0.666257
vt 0.652204 0.605876
vt 0.805726 0.610927
vt 0.653612 0.563063
vt 0.807134 0.568114
vt 0.654620 0.532447
vt 0.808142 0.537499
vt 0.807700 0.784504
vt 0.654138 0.788126
vt 0.653026 0.740974
vt 0.806588 0.737352
vt 0.808422 0.815128
vt 0.654860 0.818750
vt 0.809432 0.857952
vt 0.655870 0.861573
vt 0.810738 0.913297
vt 0.657175 0.916918
vt 0.480026 0.752886
vt 0.462575 0.770330
vt 0.438733 0.776713
vt 0.057168 0.776499
vt 0.033338 0.770083
vt 0.015909 0.752601
vt 0.009549 0.728743
vt 0.010040 0.062734
vt 0.016432 0.038899
vt 0.033898 0.021443
vt 0.057753 0.015052
vt 0.439256 0.015350
vt 0.463084 0.021766
vt 0.480511 0.039247
vt 0.486870 0.063104
vt 0.486404 0.729063
vt 0.489220 0.766936
vt 0.471042 0.785086
vt 0.446221 0.791760
vt 0.049669 0.791538
vt 0.024855 0.784829
vt 0.006696 0.766644
vt 0.000000 0.741803
vt 0.000510 0.049660
vt 0.007244 0.024842
vt 0.025437 0.006684
vt 0.050272 0.000004
vt 0.446759 0.000313
vt 0.471570 0.007021
vt 0.489725 0.025206
vt 0.496419 0.050045
vt 0.495935 0.742136
vt 0.916129 0.861818
vt 0.897724 0.826089
vt 0.945735 0.820069
vt 0.923784 0.860858
vt 0.885906 0.798407
vt 0.960271 0.789081
vt 0.877348 0.748574
vt 0.973709 0.733634
vt 0.889297 0.692720
vt 0.966693 0.683014
vt 0.902991 0.660827
vt 0.955812 0.654202
vt 0.927150 0.613261
vt 0.935804 0.612175
vt 0.927272 0.611223
vt 0.905322 0.570433
vt 0.953332 0.576454
vt 0.934927 0.612183
vt 0.890785 0.539446
vt 0.965150 0.548772
vt 0.877348 0.483998
vt 0.973709 0.498939
vt 0.884363 0.433378
vt 0.961759 0.443084
vt 0.895244 0.404567
vt 0.948065 0.411191
vt 0.915252 0.362540
vt 0.923906 0.363626
vt 0.919468 0.226285
vt 0.900403 0.189985
vt 0.951491 0.193515
vt 0.927613 0.226848
vt 0.888225 0.162320
vt 0.967357 0.167789
vt 0.882333 0.107274
vt 0.980766 0.114076
vt 0.893271 0.065859
vt 0.975628 0.071550
vt 0.908255 0.039142
vt 0.964461 0.043026
vt 0.934570 0.000000
vt 0.943779 0.000636
vt 0.502040 1.000000
vt 0.478091 0.966719
vt 0.529171 0.963078
vt 0.510184 0.999420
vt 0.462168 0.941027
vt 0.541288 0.935387
vt 0.448644 0.887344
vt 0.547062 0.880329
vt 0.453689 0.844807
vt 0.536034 0.838937
vt 0.464794 0.816258
vt 0.520992 0.812253
vt 0.485384 0.773824
vt 0.494591 0.773168
vt 0.876873 0.869840
vt 0.812546 0.869834
vt 0.812582 0.473392
vt 0.876909 0.473398
vt 0.812543 0.895482
vt 0.876870 0.895488
vt 0.812585 0.447743
vt 0.876911 0.447749
vt 0.881858 0.422101
vt 0.817531 0.422095
vt 0.817567 0.025653
vt 0.881894 0.025659
vt 0.817528 0.447743
vt 0.881855 0.447749
vt 0.817570 0.000004
vt 0.881896 0.000010
vn 0.000000 0.000000 1.000000
vn 0.000000 0.000000 1.000000
vn 0.000000 0.000000 1.000000
vn 0.000000 0.000000 1.000000
vn -0.473882 0.880588 0.000000
vn -0.453153 0.891432 0.000000
vn -0.453153 0.891432 0.000000
vn -0.473882 0.880588 0.000000
vn 0.000003 0.000000 -1.000000
vn 0.000002 -0.000000 -1.000000
vn 0.000002 -0.000000 -1.000000
vn 0.000003 0.000000 -1.000000
vn -0.457937 -0.888985 0.000000
vn -0.430248 -0.902711 0.000000
vn -0.430248 -0.902711 0.000000
vn -0.457937 -0.888985 0.000000
vn 0.992226 -0.124449 0.000000
vn 0.992226 -0.124449 0.000000
vn 0.992226 -0.124449 0.000000
vn 0.992226 -0.124449 0.000000
vn -0.992227 0.124440 0.000000
vn -0.992227 0.124440 0.000000
vn -0.992227 0.124440 0.000000
vn -0.992227 0.124440 0.000000
vn -0.000000 0.000000 1.000000
vn -0.000000 0.000000 1.000000
vn -0.307918 0.951413 0.000000
vn -0.307918 0.951413 0.000000
vn -0.000000 -0.000000 -1.000000
vn -0.000000 -0.000000 -1.000000
vn -0.254236 -0.967142 0.000000
vn -0.254236 -0.967142 0.000000
vn -0.000000 0.000000 1.000000
vn -0.000000 0.000000 1.000000
vn -0.000001 0.000000 1.000000
vn -0.000001 0.000000 1.000000
vn 0.399698 0.916647 0.000000
vn 0.399698 0.916647 0.000000
vn 0.429838 0.902906 0.000000
vn 0.429838 0.902906 0.000000
vn -0.000000 0.000000 -1.000000
vn -0.000000 0.000000 -1.000000
vn 0.000000 0.000000 -1.000000
vn 0.000000 0.000000 -1.000000
vn 0.430078 -0.902792 0.000000
vn 0.430078 -0.902792 0.000000
vn 0.452847 -0.891588 0.000000
vn 0.452847 -0.891588 0.000000
vn 0.000000 0.000000 1.000000
vn 0.000000 0.000000 1.000000
vn -0.060431 0.998172 0.000000
vn -0.060431 0.998172 0.000000
vn -0.000001 0.000000 -1.000000
vn -0.000001 0.000000 -1.000000
vn 0.032069 -0.999486 0.000000
vn 0.032069 -0.999486 0.000000
vn 0.000000 0.000000 1.000000
vn 0.000001 0.000000 1.000000
vn 0.219801 0.975545 0.000000
vn 0.219801 0.975545 0.000000
vn -0.000001 0.000000 -1.000000
vn -0.000001 0.000000 -1.000000
vn 0.280510 -0.959851 0.000000
vn 0.280510 -0.959851 0.000000
vn -0.024365 0.112684 0.993332
vn -0.024370 0.112684 0.993332
vn -0.024370 0.112684 0.993332
vn -0.024365 0.112684 0.993332
vn -0.582271 0.806091 -0.105727
vn -0.558249 0.822741 -0.107027
vn -0.558249 0.822741 -0.107027
vn -0.582271 0.806091 -0.105727
vn 0.024369 -0.112688 -0.993332
vn 0.024367 -0.112685 -0.993332
vn 0.024367 -0.112685 -0.993332
vn 0.024369 -0.112688 -0.993332
vn -0.464725 -0.881017 0.088543
vn -0.438634 -0.894081 0.090665
vn -0.438634 -0.894081 0.090665
vn -0.464725 -0.881017 0.088543
vn 0.997316 0.071370 0.016369
vn 0.997316 0.071370 0.016369
vn 0.997316 0.071370 0.016369
vn 0.997316 0.071370 0.016369
vn -0.997316 -0.071357 -0.016371
vn -0.997316 -0.071357 -0.016371
vn -0.997316 -0.071357 -0.016371
vn -0.997316 -0.071357 -0.016371
vn -0.024367 0.112684 0.993332
vn -0.024367 0.112684 0.993332
vn -0.345812 0.931336 -0.114135
vn -0.345812 0.931336 -0.114135
vn 0.024366 -0.112684 -0.993332
vn 0.024366 -0.112684 -0.993332
vn -0.213248 -0.971344 0.104959
vn -0.213249 -0.971344 0.104959
vn -0.024371 0.112685 0.993332
vn -0.024371 0.112685 0.993332
vn -0.024364 0.112686 0.993332
vn -0.024364 0.112686 0.993332
vn 0.409451 0.907589 -0.092913
vn 0.409450 0.907589 -0.092913
vn 0.438245 0.894268 -0.090696
vn 0.438245 0.894268 -0.090696
vn 0.024363 -0.112685 -0.993332
vn 0.024363 -0.112685 -0.993332
vn 0.024370 -0.112685 -0.993332
vn 0.024370 -0.112685 -0.993332
vn 0.531227 -0.840272 0.108353
vn 0.531227 -0.840272 0.108353
vn 0.557889 -0.822983 0.107045
vn 0.557889 -0.822983 0.107045
vn -0.024366 0.112684 0.993332
vn -0.024366 0.112684 0.993332
vn -0.085727 0.989731 -0.114379
vn -0.085727 0.989731 -0.114379
vn 0.024369 -0.112684 -0.993332
vn 0.024369 -0.112684 -0.993332
vn 0.052352 -0.992120 0.113831
vn 0.052352 -0.992120 0.113831
vn -0.024368 0.112684 0.993332
vn -0.024368 0.112684 0.993332
vn 0.223466 0.969099 -0.104453
vn 0.223465 0.969099 -0.104453
vn 0.024369 -0.112684 -0.993332
vn 0.024369 -0.112684 -0.993332
vn 0.355616 -0.927659 0.113958
vn 0.355616 -0.927659 0.113958
vn -0.015758 0.000000 0.999876
vn -0.015758 0.000000 0.999876
vn 0.015758 0.000000 0.999876
vn 0.015758 0.000000 0.999876
vn -0.015758 0.000000 -0.999876
vn -0.015758 0.000000 -0.999876
vn 0.015758 0.000000 -0.999876
vn 0.015758 0.000000 -0.999876
vn 0.999957 0.000000 0.009259
vn 0.999957 0.000000 0.009259
vn 0.999957 0.000000 -0.009259
vn 0.999957 0.000000 -0.009259
vn -0.999957 0.000000 -0.009259
vn -0.999957 0.000000 -0.009259
vn -0.999957 0.000000 0.009259
vn -0.999957 0.000000 0.009259
vn -0.965926 0.000000 0.258818
vn -0.965926 0.000000 0.258818
vn -0.707107 0.000000 0.707107
vn -0.707107 0.000000 0.707107
vn -0.707107 0.000000 0.707107
vn -0.707107 0.000000 0.707107
vn -0.258818 0.000000 0.965926
vn -0.258818 0.000000 0.965926
vn 0.258818 0.000000 0.965926
vn 0.258818 0.000000 0.965926
vn 0.707107 0.000000 0.707107
vn 0.707107 0.000000 0.707107
vn 0.707107 0.000000 0.707107
vn 0.707107 0.000000 0.707107
vn 0.965925 0.000000 0.258821
vn 0.965925 0.000000 0.258821
vn -0.965925 0.000000 -0.258822
vn -0.965925 0.000000 -0.258822
vn -0.707106 0.000000 -0.707108
vn -0.707106 0.000000 -0.707108
vn -0.707106 0.000000 -0.707108
vn -0.707106 0.000000 -0.707108
vn -0.258822 0.000000 -0.965925
vn -0.258822 0.000000 -0.965925
vn 0.258824 0.000000 -0.965925
vn 0.258824 0.000000 -0.965925
vn 0.707102 0.000000 -0.707112
vn 0.707102 0.000000 -0.707112
vn 0.707102 0.000000 -0.707112
vn 0.707102 0.000000 -0.707112
vn 0.965927 0.000000 -0.258816
vn 0.965927 0.000000 -0.258816
vn 0.000000 1.000000 0.000000
vn 0.000000 1.000000 0.000000
vn 0.000000 1.000000 0.000000
vn 0.000000 1.000000 0.000000
vn 0.000000 1.000000 0.000000
vn 0.000000 1.000000 0.000000
vn 0.000000 1.000000 0.000000
vn 0.000000 1.000000 0.000000
vn 0.000000 1.000000 0.000000
vn 0.000000 1.000000 0.000000
vn 0.000000 1.000000 0.000000
vn 0.000000 1.000000 0.000000
vn 0.000000 1.000000 0.000000
vn 0.000000 1.000000 0.000000
vn 0.000000 1.000000 0.000000
vn 0.000000 1.000000 0.000000
vn -0.083133 0.993065 0.083134
vn -0.083133 0.993065 0.083134
vn -0.083133 0.993065 0.083134
vn -0.083133 0.993065 0.083134
vn -0.030380 0.993087 0.113379
vn -0.030380 0.993087 0.113379
vn -0.030380 0.993087 0.113379
vn -0.030380 0.993087 0.113379
vn 0.000000 0.991719 0.128423
vn 0.000000 0.991719 0.128423
vn 0.000000 0.991719 0.128423
vn 0.000000 0.991719 0.128423
vn 0.030379 0.993087 0.113378
vn 0.030379 0.993087 0.113379
vn 0.030379 0.993087 0.113379
vn 0.030379 0.993087 0.113379
vn 0.083134 0.993065 0.083134
vn 0.083134 0.993065 0.083134
vn 0.083134 0.993065 0.083134
vn 0.083134 0.993065 0.083134
vn 0.148669 0.988084 0.039836
vn 0.148669 0.988084 0.039836
vn 0.148669 0.988084 0.039836
vn 0.148669 0.988084 0.039836
vn 0.202486 0.979285 -0.000000
vn 0.202486 0.979285 -0.000000
vn 0.202486 0.979285 -0.000000
vn 0.202486 0.979285 -0.000000
vn 0.148670 0.988084 -0.039836
vn 0.148670 0.988084 -0.039836
vn 0.148670 0.988084 -0.039836
vn 0.148670 0.988084 -0.039836
vn 0.083134 0.993065 -0.083134
vn 0.083134 0.993065 -0.083134
vn 0.083134 0.993065 -0.083134
vn 0.083134 0.993065 -0.083134
vn 0.030380 0.993087 -0.113381
vn 0.030380 0.993087 -0.113381
vn 0.030380 0.993087 -0.113381
vn 0.030380 0.993087 -0.113381
vn 0.000000 0.991719 -0.128425
vn 0.000000 0.991719 -0.128425
vn 0.000000 0.991719 -0.128425
vn 0.000000 0.991719 -0.128425
vn -0.030380 0.993087 -0.113380
vn -0.030380 0.993087 -0.113380
vn -0.030380 0.993087 -0.113380
vn -0.030380 0.993087 -0.113380
vn -0.083135 0.993065 -0.083134
vn -0.083135 0.993065 -0.083134
vn -0.083135 0.993065 -0.083134
vn -0.083135 0.993065 -0.083134
vn -0.148666 0.988085 -0.039835
vn -0.148666 0.988085 -0.039835
vn -0.148666 0.988085 -0.039835
vn -0.148666 0.988085 -0.039835
vn -0.202486 0.979285 0.000000
vn -0.202486 0.979285 0.000000
vn -0.202486 0.979285 0.000000
vn -0.202486 0.979285 0.000000
vn -0.148665 0.988085 0.039835
vn -0.148665 0.988085 0.039835
vn -0.148665 0.988085 0.039835
vn -0.148665 0.988085 0.039835
s 1
g polySurface6
usemtl initialShadingGroup
f 1/129/1 9/130/2 10/131/3 3/132/4
s 2
f 3/47/5 10/48/6 11/49/7 5/50/8
s 3
f 5/143/9 11/144/10 12/145/11 7/146/12
s 4
f 7/61/13 12/62/14 9/63/15 1/64/16
s off
f 2/1/17 8/2/18 6/3/19 4/4/20
f 7/5/21 1/6/22 3/7/23 5/8/24
s 1
f 10/131/3 9/130/2 17/133/25 18/134/26
s 2
f 11/49/7 10/48/6 18/51/27 19/52/28
s 3
f 12/145/11 11/144/10 19/147/29 20/148/30
s 4
f 9/63/15 12/62/14 20/65/31 17/66/32
s 1
f 14/140/33 13/139/34 2/141/35 4/142/36
s 2
f 15/58/37 14/57/38 4/59/39 6/60/40
s 3
f 16/154/41 15/153/42 6/155/43 8/156/44
s 4
f 13/72/45 16/71/46 8/73/47 2/74/48
s 1
f 18/134/26 17/133/25 25/135/49 26/136/50
s 2
f 19/52/28 18/51/27 26/53/51 27/54/52
s 3
f 20/148/30 19/147/29 27/149/53 28/150/54
s 4
f 17/66/32 20/65/31 28/67/55 25/68/56
s 1
f 22/138/57 21/137/58 13/139/34 14/140/33
s 2
f 23/56/59 22/55/60 14/57/38 15/58/37
s 3
f 24/152/61 23/151/62 15/153/42 16/154/41
s 4
f 21/70/63 24/69/64 16/71/46 13/72/45
s 1
f 26/136/50 25/135/49 21/137/58 22/138/57
s 2
f 27/54/52 26/53/51 22/55/60 23/56/59
s 3
f 28/150/54 27/149/53 23/151/62 24/152/61
s 4
f 25/68/56 28/67/55 24/69/64 21/70/63
s 9
f 29/157/65 37/158/66 38/159/67 31/160/68
s 10
f 31/17/69 38/19/70 39/20/71 33/18/72
s 11
f 33/171/73 39/172/74 40/173/75 35/174/76
s 12
f 35/75/77 40/76/78 37/77/79 29/78/80
s off
f 30/9/81 36/10/82 34/11/83 32/12/84
f 35/15/85 29/16/86 31/17/87 33/18/88
s 9
f 38/159/67 37/158/66 45/161/89 46/162/90
s 10
f 39/20/71 38/19/70 46/21/91 47/22/92
s 11
f 40/173/75 39/172/74 47/175/93 48/176/94
s 12
f 37/77/79 40/76/78 48/79/95 45/80/96
s 9
f 42/168/97 41/167/98 30/169/99 32/170/100
s 10
f 43/87/101 42/88/102 32/89/103 34/90/104
s 11
f 44/182/105 43/181/106 34/183/107 36/184/108
s 12
f 41/13/109 44/14/110 36/10/111 30/9/112
s 9
f 46/162/90 45/161/89 53/163/113 54/164/114
s 10
f 47/95/92 46/96/91 54/94/115 55/93/116
s 11
f 48/176/94 47/175/93 55/177/117 56/178/118
s 12
f 45/80/96 48/79/95 56/81/119 53/82/120
s 9
f 50/166/121 49/165/122 41/167/98 42/168/97
s 10
f 51/91/123 50/92/124 42/88/102 43/87/101
s 11
f 52/180/125 51/179/126 43/181/106 44/182/105
s 12
f 49/84/127 52/83/128 44/85/110 41/86/109
s 9
f 54/164/114 53/163/113 49/165/122 50/166/121
s 10
f 55/93/116 54/94/115 50/92/124 51/91/123
s 11
f 56/178/118 55/177/117 51/179/126 52/180/125
s 12
f 53/82/120 56/81/119 52/83/128 49/84/127
s 17
f 64/185/129 58/186/130 68/187/131 70/188/132
s 18
f 80/193/133 76/194/134 83/195/135 86/196/136
s 19
f 69/23/137 65/24/138 85/25/139 84/26/140
s 20
f 75/35/141 77/36/142 57/37/143 61/38/144
f 57/37/143 60/41/145 62/42/146 61/38/144
s off
f 60/41/147 59/45/148 63/46/149 62/42/150
s 17
f 59/189/151 58/186/130 64/185/129 63/190/152
f 68/187/131 67/191/153 71/192/154 70/188/132
s off
f 67/31/155 66/27/156 72/28/157 71/32/158
s 19
f 66/27/159 65/24/138 69/23/137 72/28/160
s 20
f 75/35/141 74/39/161 78/40/162 77/36/142
s off
f 74/39/163 73/43/164 79/44/165 78/40/166
s 18
f 73/197/167 76/194/134 80/193/133 79/198/168
f 83/195/135 82/199/169 87/200/170 86/196/136
s off
f 82/33/171 81/29/172 88/30/173 87/34/174
s 19
f 81/29/175 84/26/140 85/25/139 88/30/176
s off
f 90/97/177 89/98/178 91/99/179 92/100/180 93/101/181 94/102/182 95/103/183 96/104/184 97/105/185 98/106/186 99/107/187 100/108/188 101/109/189 102/110/190 103/111/191 104/112/192
f 81/113/193 82/114/194 89/98/195 90/97/196
f 82/114/197 83/115/198 91/99/199 89/98/200
f 83/115/201 76/116/202 92/100/203 91/99/204
f 76/116/205 73/117/206 93/101/207 92/100/208
f 73/117/209 74/118/210 94/102/211 93/101/212
f 74/118/213 75/119/214 95/103/215 94/102/216
f 75/119/217 61/120/218 96/104/219 95/103/220
f 61/120/221 62/121/222 97/105/223 96/104/224
f 62/121/225 63/122/226 98/106/227 97/105/228
f 63/122/229 64/123/230 99/107/231 98/106/232
f 64/123/233 70/124/234 100/108/235 99/107/236
f 70/124/237 71/125/238 101/109/239 100/108/240
f 71/125/241 72/126/242 102/110/243 101/109/244
f 72/126/245 69/127/246 103/111/247 102/110/248
f 69/127/249 84/128/250 104/112/251 103/111/252
f 84/128/253 81/113/254 90/97/255 104/112/256
