# This file uses centimeters as units for non-parametric coordinates.

mtllib Box3.mtl
g default
v -1580.810547 153.749969 618.085938
v -1667.546875 153.749969 525.320984
v -1580.810547 55.810913 618.085938
v -1667.546875 55.810913 525.320984
v -1671.615967 153.749969 702.990173
v -1671.615967 55.810913 702.990173
v -1758.352417 153.749969 610.225159
v -1758.352417 55.810913 610.225159
vt 0.629906 0.585560
vt 0.331560 0.306603
vt 0.616537 0.001819
vt 0.914883 0.280776
vt 0.254332 0.675476
vt 0.323776 0.306603
vt 0.001992 0.306603
vt 0.001992 0.001819
vt 0.001992 0.585560
vt 0.323776 0.585560
vt 0.576115 0.954433
vt 0.254332 0.954433
vt 0.998008 0.589551
vt 0.998008 0.911335
vt 0.693224 0.911335
vt 0.693224 0.589551
vt 0.576115 0.675476
vt 0.323776 0.001819
vt 0.001992 0.306603
vt 0.323776 0.306603
vn 0.730443 0.000000 -0.682973
vn 0.730443 0.000000 -0.682973
vn 0.730443 0.000000 -0.682973
vn 0.730443 0.000000 -0.682973
vn -0.730443 0.000000 0.682973
vn -0.730443 0.000000 0.682973
vn -0.730443 0.000000 0.682973
vn -0.730443 0.000000 0.682973
vn -0.682973 0.000000 -0.730444
vn -0.682973 0.000000 -0.730444
vn -0.682973 0.000000 -0.730444
vn -0.682973 0.000000 -0.730444
vn 0.682974 0.000000 0.730443
vn 0.682974 0.000000 0.730443
vn 0.682974 0.000000 0.730443
vn 0.682974 0.000000 0.730443
vn 0.000000 1.000000 0.000000
vn 0.000000 1.000000 0.000000
vn 0.000000 1.000000 0.000000
vn 0.000000 1.000000 0.000000
s off
g polySurface7823
usemtl polySurface7823SG
f 2/18/1 1/6/2 3/19/3 4/8/4
f 6/13/5 5/14/6 7/15/7 8/16/8
f 4/17/9 8/11/10 7/12/11 2/5/12
f 6/9/13 3/7/14 1/20/15 5/10/16
f 2/1/17 7/2/18 5/3/19 1/4/20
