# This file uses centimeters as units for non-parametric coordinates.

mtllib Door.mtl
g default
v 505.450409 53.344391 -1205.551147
v 817.023376 53.344391 -1205.551147
v 817.023376 607.709290 -1205.551147
v 505.450409 607.709290 -1205.551147
v 552.660461 103.514824 -1199.132690
v 769.813293 103.514824 -1199.132690
v 769.813293 558.483704 -1199.132690
v 552.660461 558.483704 -1199.132690
v 769.813293 330.999329 -1199.132690
v 552.660461 330.999329 -1199.132690
v 505.450409 330.999329 -1205.551147
v 491.205841 330.999329 -1205.223877
v 491.205841 330.999329 -1226.742188
v 831.267761 330.999329 -1226.742188
v 831.267761 330.999329 -1205.223877
v 817.023376 330.999329 -1205.551147
v 769.813293 444.741516 -1199.132690
v 552.660461 444.741516 -1199.132690
v 505.450409 444.696045 -1205.551147
v 491.205841 444.696228 -1205.223877
v 491.205841 444.696228 -1226.742188
v 831.267761 444.719513 -1226.742188
v 831.267761 444.719513 -1205.223877
v 817.023376 444.719513 -1205.551147
v 769.813293 216.380295 -1199.132690
v 552.660461 216.380295 -1199.132690
v 505.450409 216.380295 -1205.551147
v 491.205841 216.380295 -1205.223877
v 491.205841 216.380295 -1226.742188
v 831.267761 216.380295 -1226.742188
v 831.267761 216.380295 -1205.223877
v 817.023376 216.380295 -1205.551147
v 558.763306 109.617691 -1203.972900
v 763.710388 109.617691 -1203.972900
v 763.710388 211.154251 -1203.972900
v 558.763306 211.154251 -1203.972900
v 763.710388 337.102112 -1203.972900
v 558.763306 337.102112 -1203.972900
v 763.710388 438.638733 -1203.972900
v 558.763306 438.638733 -1203.972900
v 763.710388 450.844299 -1203.972900
v 558.763306 450.844299 -1203.972900
v 763.710388 552.380859 -1203.972900
v 558.763306 552.380859 -1203.972900
v 763.710388 223.359894 -1203.972900
v 558.763306 223.359894 -1203.972900
v 763.710388 324.896545 -1203.972900
v 558.763306 324.896545 -1203.972900
v 491.205841 609.599182 -1205.223877
v 507.585175 625.978699 -1205.223877
v 501.316986 624.731812 -1205.223877
v 496.003204 621.181335 -1205.223877
v 492.452545 615.867371 -1205.223877
v 491.205841 609.599182 -1226.742188
v 492.452545 615.867371 -1226.742188
v 496.003204 621.181335 -1226.742188
v 501.316986 624.731812 -1226.742188
v 507.585175 625.978699 -1226.742188
v 831.267761 609.599182 -1205.223877
v 830.021118 615.867371 -1205.223877
v 826.470520 621.181335 -1205.223877
v 821.156555 624.731812 -1205.223877
v 814.888428 625.978699 -1205.223877
v 814.888428 625.978699 -1226.742188
v 821.156555 624.731812 -1226.742188
v 826.470520 621.181335 -1226.742188
v 830.021118 615.867371 -1226.742188
v 831.267761 609.599182 -1226.742188
v 491.205841 53.344391 -1205.223877
v 491.205841 53.344391 -1226.742188
v 831.267761 53.344391 -1205.223877
v 831.267761 53.344391 -1226.742188
vt 0.600084 0.001992
vt 0.637512 0.001992
vt 0.637512 0.285570
vt 0.600084 0.285570
vt 0.637512 0.484933
vt 0.600084 0.484933
vt 0.637512 0.682733
vt 0.600084 0.682733
vt 0.637512 0.969518
vt 0.600084 0.969518
vt 0.600084 0.980421
vt 0.637512 0.980421
vt 0.600084 0.989664
vt 0.637512 0.989664
vt 0.600084 0.995839
vt 0.637512 0.995839
vt 0.644480 0.001992
vt 0.681908 0.001992
vt 0.681908 0.285570
vt 0.644480 0.285570
vt 0.681908 0.484933
vt 0.644480 0.484933
vt 0.681908 0.682693
vt 0.644480 0.682693
vt 0.681908 0.969518
vt 0.644480 0.969518
vt 0.681908 0.980421
vt 0.644480 0.980421
vt 0.681908 0.989664
vt 0.644480 0.989664
vt 0.681908 0.995839
vt 0.644480 0.995839
vt 0.726304 0.547405
vt 0.688876 0.547405
vt 0.688876 0.012895
vt 0.726304 0.012895
vt 0.688876 0.558308
vt 0.726304 0.558308
vt 0.688876 0.001992
vt 0.726304 0.001992
vt 0.118956 0.099871
vt 0.475433 0.099871
vt 0.475433 0.276480
vt 0.118956 0.276480
vt 0.108341 0.089256
vt 0.486048 0.089256
vt 0.486048 0.285570
vt 0.108341 0.285570
vt 0.026226 0.001992
vt 0.568163 0.001992
vt 0.568163 0.285570
vt 0.475433 0.297710
vt 0.118956 0.297710
vt 0.026226 0.285570
vt 0.592939 0.001992
vt 0.592939 0.285570
vt 0.568163 0.484933
vt 0.486048 0.484933
vt 0.475433 0.474319
vt 0.118956 0.474319
vt 0.108341 0.484933
vt 0.001450 0.285570
vt 0.001450 0.001992
vt 0.026226 0.484933
vt 0.592939 0.484933
vt 0.568163 0.682733
vt 0.486048 0.682772
vt 0.001450 0.484933
vt 0.026226 0.682693
vt 0.108341 0.682772
vt 0.592939 0.682733
vt 0.568163 0.966231
vt 0.486048 0.880610
vt 0.475433 0.672157
vt 0.475433 0.495548
vt 0.118956 0.495548
vt 0.001450 0.682693
vt 0.118956 0.672157
vt 0.026226 0.966231
vt 0.108341 0.880610
vt 0.592939 0.969518
vt 0.475433 0.869995
vt 0.475433 0.693387
vt 0.001450 0.969518
vt 0.118956 0.693387
vt 0.118956 0.869995
vt 0.590771 0.980421
vt 0.564450 0.998008
vt 0.029939 0.998008
vt 0.003618 0.980421
vt 0.584595 0.989664
vt 0.575352 0.995839
vt 0.019037 0.995839
vt 0.009794 0.989664
vn 0.000000 0.000000 1.000000
vn 0.000000 0.000000 1.000000
vn 0.000000 0.000000 1.000000
vn 0.000000 0.000000 1.000000
vn -0.003976 0.999992 0.000000
vn -0.003976 0.999992 0.000000
vn 0.003976 0.999992 0.000000
vn 0.003976 0.999992 0.000000
vn 1.000000 0.000000 0.000000
vn 1.000000 0.000000 0.000000
vn 1.000000 0.000000 0.000000
vn 1.000000 0.000000 0.000000
vn -1.000000 0.000000 0.000000
vn -1.000000 0.000000 0.000000
vn -1.000000 0.000000 0.000000
vn -1.000000 0.000000 0.000000
vn 0.022971 0.000000 0.999736
vn 0.022970 0.000000 0.999736
vn -0.030150 -0.071240 0.997003
vn -0.095925 0.000000 0.995389
vn -0.030150 -0.071240 0.997003
vn 0.030150 -0.071240 0.997003
vn 0.045336 -0.084681 0.995376
vn -0.045336 -0.084681 0.995376
vn 0.030150 -0.071240 0.997003
vn 0.095925 0.000000 0.995389
vn 0.134716 0.000000 0.990884
vn 0.045336 -0.084681 0.995376
vn 0.021183 0.044006 0.998807
vn -0.021184 0.044004 0.998807
vn -0.045756 0.085887 0.995254
vn 0.045754 0.085890 0.995254
vn -0.095925 0.000000 0.995389
vn -0.030150 -0.071240 0.997003
vn -0.045336 -0.084681 0.995376
vn -0.134716 0.000000 0.990884
vn 0.000000 0.000000 1.000000
vn 0.000000 0.000000 1.000000
vn 0.000000 0.000000 1.000000
vn 0.000000 0.000000 1.000000
vn -0.095870 0.000000 0.995394
vn -0.098636 0.000000 0.995124
vn -0.134716 0.000000 0.990884
vn -0.134716 0.000000 0.990884
vn 0.022963 0.000000 0.999736
vn 0.022969 0.000000 0.999736
vn -0.098636 0.000000 0.995124
vn -0.095870 0.000000 0.995394
vn -1.000000 0.000000 0.000000
vn -1.000000 0.000000 0.000000
vn -1.000000 0.000000 0.000000
vn -1.000000 0.000000 0.000000
vn 1.000000 0.000000 0.000000
vn 1.000000 0.000000 0.000000
vn 1.000000 0.000000 0.000000
vn 1.000000 0.000000 0.000000
vn 0.098635 0.000000 0.995124
vn -0.022971 0.000000 0.999736
vn -0.022967 0.000000 0.999736
vn 0.095871 0.000000 0.995394
vn 0.134716 0.000000 0.990884
vn 0.098635 0.000000 0.995124
vn 0.095871 0.000000 0.995394
vn 0.134717 0.000000 0.990884
vn 0.000000 0.000000 1.000000
vn 0.000000 0.000000 1.000000
vn 0.000000 0.000000 1.000000
vn 0.000000 0.000000 1.000000
vn -0.021184 0.044004 0.998807
vn -0.095870 0.000000 0.995394
vn -0.134716 0.000000 0.990884
vn -0.045756 0.085887 0.995254
vn -1.000000 0.000000 0.000000
vn -1.000000 0.000000 0.000000
vn -0.999974 0.007283 0.000000
vn -0.999974 0.007283 0.000000
vn 1.000000 0.000000 0.000000
vn 1.000000 0.000000 0.000000
vn 0.999973 0.007284 0.000000
vn 0.999973 0.007284 0.000000
vn 0.095871 0.000000 0.995394
vn -0.022967 0.000000 0.999736
vn -0.022953 -0.000090 0.999737
vn 0.021183 0.044006 0.998807
vn 0.134717 0.000000 0.990884
vn 0.095871 0.000000 0.995394
vn 0.021183 0.044006 0.998807
vn 0.045754 0.085890 0.995254
vn 0.000000 0.000000 1.000000
vn 0.000000 0.000000 1.000000
vn 0.000000 0.000000 1.000000
vn 0.000000 0.000000 1.000000
vn -0.098636 0.000000 0.995124
vn -0.095925 0.000000 0.995389
vn -0.134716 0.000000 0.990884
vn -0.134716 0.000000 0.990884
vn 0.022969 0.000000 0.999736
vn 0.022971 0.000000 0.999736
vn -0.095925 0.000000 0.995389
vn -0.098636 0.000000 0.995124
vn -1.000000 0.000000 0.000000
vn -1.000000 0.000000 0.000000
vn -1.000000 0.000000 0.000000
vn -1.000000 0.000000 0.000000
vn 1.000000 0.000000 0.000000
vn 1.000000 0.000000 0.000000
vn 1.000000 0.000000 0.000000
vn 1.000000 0.000000 0.000000
vn 0.095925 0.000000 0.995389
vn -0.022971 0.000000 0.999736
vn -0.022971 0.000000 0.999736
vn 0.098635 0.000000 0.995124
vn 0.134716 0.000000 0.990884
vn 0.095925 0.000000 0.995389
vn 0.098635 0.000000 0.995124
vn 0.134716 0.000000 0.990884
vn 0.000000 0.621395 0.783497
vn 0.000000 0.621395 0.783497
vn 0.000000 0.621395 0.783497
vn 0.000000 0.621395 0.783497
vn -0.621394 0.000000 0.783498
vn -0.621394 0.000000 0.783498
vn -0.621394 0.000000 0.783498
vn -0.621394 0.000000 0.783498
vn 0.000000 0.037124 0.999311
vn 0.000000 0.037124 0.999311
vn 0.000000 -0.679506 0.733670
vn 0.000000 -0.679506 0.733670
vn 0.621396 0.000000 0.783496
vn 0.621396 0.000000 0.783496
vn 0.621396 0.000000 0.783496
vn 0.621396 0.000000 0.783497
vn 0.000000 -0.000000 1.000000
vn 0.000000 -0.000000 1.000000
vn 0.000000 0.621402 0.783492
vn 0.000000 0.621402 0.783492
vn -0.621397 0.000000 0.783496
vn -0.621397 0.000000 0.783496
vn -0.621397 0.000000 0.783496
vn -0.621397 0.000000 0.783496
vn 0.000000 0.000001 1.000000
vn 0.000000 0.000001 1.000000
vn 0.000000 -0.621398 0.783495
vn 0.000000 -0.621398 0.783495
vn 0.621401 0.000000 0.783493
vn 0.621401 0.000000 0.783493
vn 0.621401 0.000000 0.783493
vn 0.621401 0.000000 0.783493
vn 0.000000 0.000001 1.000000
vn 0.000000 0.000001 1.000000
vn 0.000000 0.621401 0.783493
vn 0.000000 0.621401 0.783493
vn -0.621397 0.000000 0.783496
vn -0.621397 0.000000 0.783496
vn -0.621397 0.000000 0.783496
vn -0.621397 0.000000 0.783496
vn 0.000000 -0.621396 0.783497
vn 0.000000 -0.621396 0.783497
vn 0.000000 -0.621396 0.783497
vn 0.000000 -0.621396 0.783497
vn 0.621398 0.000000 0.783495
vn 0.621398 0.000000 0.783495
vn 0.621398 0.000000 0.783495
vn 0.621398 0.000000 0.783495
vn 0.000000 0.037124 0.999311
vn 0.000000 0.037124 0.999311
vn 0.000000 0.569861 0.821741
vn 0.000000 0.569861 0.821741
vn -0.621383 0.000000 0.783507
vn -0.621383 0.000000 0.783507
vn -0.621383 0.000000 0.783507
vn -0.621383 0.000000 0.783507
vn 0.000000 -0.000000 1.000000
vn 0.000000 -0.000000 1.000000
vn 0.000000 -0.621400 0.783494
vn 0.000000 -0.621400 0.783494
vn 0.621392 0.000000 0.783500
vn 0.621392 0.000000 0.783500
vn 0.621392 0.000000 0.783500
vn 0.621392 0.000000 0.783500
vn 0.030150 -0.071240 0.997003
vn -0.022970 0.000000 0.999736
vn -0.022971 0.000000 0.999736
vn 0.095925 0.000000 0.995389
vn -0.999974 0.007283 0.000000
vn -0.923883 0.382676 0.000000
vn -0.923883 0.382676 0.000000
vn -0.999974 0.007283 0.000000
vn -0.923883 0.382676 0.000000
vn -0.707108 0.707106 0.000000
vn -0.707108 0.707106 0.000000
vn -0.923883 0.382676 0.000000
vn -0.707108 0.707106 0.000000
vn -0.382680 0.923881 0.000000
vn -0.382680 0.923881 0.000000
vn -0.707108 0.707106 0.000000
vn -0.382680 0.923881 0.000000
vn -0.003976 0.999992 0.000000
vn -0.003976 0.999992 0.000000
vn -0.382680 0.923881 0.000000
vn 0.003976 0.999992 0.000000
vn 0.382674 0.923883 0.000000
vn 0.382674 0.923883 0.000000
vn 0.003976 0.999992 0.000000
vn 0.382674 0.923883 0.000000
vn 0.707102 0.707111 0.000000
vn 0.707102 0.707111 0.000000
vn 0.382674 0.923883 0.000000
vn 0.707102 0.707111 0.000000
vn 0.923886 0.382667 0.000000
vn 0.923886 0.382667 0.000000
vn 0.707102 0.707111 0.000000
vn 0.923886 0.382667 0.000000
vn 0.999973 0.007284 0.000000
vn 0.999973 0.007284 0.000000
vn 0.923886 0.382667 0.000000
vn -0.021184 0.044004 0.998807
vn 0.000027 -0.017914 0.999840
vn 0.006824 -0.017566 0.999822
vn -0.021184 0.044004 0.998807
vn 0.006824 -0.017566 0.999822
vn 0.013843 -0.014571 0.999798
vn -0.021184 0.044004 0.998807
vn 0.013843 -0.014571 0.999798
vn 0.019689 -0.008725 0.999768
vn -0.021184 0.044004 0.998807
vn 0.019689 -0.008725 0.999768
vn 0.022949 -0.000090 0.999737
vn 0.021183 0.044006 0.998807
vn -0.022953 -0.000090 0.999737
vn -0.019690 -0.008725 0.999768
vn 0.021183 0.044006 0.998807
vn -0.019690 -0.008725 0.999768
vn -0.013843 -0.014571 0.999798
vn 0.021183 0.044006 0.998807
vn -0.013843 -0.014571 0.999798
vn -0.006824 -0.017566 0.999822
vn 0.021183 0.044006 0.998807
vn -0.006824 -0.017566 0.999822
vn -0.000027 -0.017914 0.999840
vn 0.021183 0.044006 0.998807
vn -0.000027 -0.017914 0.999840
vn 0.000027 -0.017914 0.999840
vn -0.021184 0.044004 0.998807
vn -0.021184 0.044004 0.998807
vn 0.022949 -0.000090 0.999737
vn 0.022963 0.000000 0.999736
vn -0.095870 0.000000 0.995394
s off
g polySurface43
usemtl polySurface43SG
f 33/41/1 34/42/2 35/43/3 36/44/4
f 58/33/5 50/34/6 63/35/7 64/36/8
f 71/1/9 72/2/10 30/3/11 31/4/12
f 70/17/13 69/18/14 28/19/15 29/20/16
f 28/62/17 69/63/18 1/49/19 27/54/20
f 1/49/21 2/50/22 6/46/23 5/45/24
f 2/50/25 32/51/26 25/47/27 6/46/28
f 3/72/29 4/79/30 8/80/31 7/73/32
f 27/54/33 1/49/34 5/45/35 26/48/36
f 38/76/37 37/75/38 39/74/39 40/78/40
f 19/69/41 11/64/42 10/61/43 18/70/44
f 20/77/45 12/68/46 11/64/47 19/69/48
f 13/22/49 12/21/50 20/23/51 21/24/52
f 15/6/53 14/5/54 22/7/55 23/8/56
f 16/57/57 15/65/58 23/71/59 24/66/60
f 9/58/61 16/57/62 24/66/63 17/67/64
f 42/85/65 41/83/66 43/82/67 44/86/68
f 4/79/69 19/69/70 18/70/71 8/80/72
f 21/24/73 20/23/74 49/25/75 54/26/76
f 23/8/77 22/7/78 68/9/79 59/10/80
f 24/66/81 23/71/82 59/81/83 3/72/84
f 17/67/85 24/66/86 3/72/87 7/73/88
f 46/53/89 45/52/90 47/59/91 48/60/92
f 11/64/93 27/54/94 26/48/95 10/61/96
f 12/68/97 28/62/98 27/54/99 11/64/100
f 29/20/101 28/19/102 12/21/103 13/22/104
f 31/4/105 30/3/106 14/5/107 15/6/108
f 32/51/109 31/56/110 15/65/111 16/57/112
f 25/47/113 32/51/114 16/57/115 9/58/116
f 5/45/117 6/46/118 34/42/119 33/41/120
f 6/46/121 25/47/122 35/43/123 34/42/124
f 25/47/125 26/48/126 36/44/127 35/43/128
f 26/48/129 5/45/130 33/41/131 36/44/132
f 10/61/133 9/58/134 37/75/135 38/76/136
f 9/58/137 17/67/138 39/74/139 37/75/140
f 17/67/141 18/70/142 40/78/143 39/74/144
f 18/70/145 10/61/146 38/76/147 40/78/148
f 18/70/149 17/67/150 41/83/151 42/85/152
f 17/67/153 7/73/154 43/82/155 41/83/156
f 7/73/157 8/80/158 44/86/159 43/82/160
f 8/80/161 18/70/162 42/85/163 44/86/164
f 26/48/165 25/47/166 45/52/167 46/53/168
f 25/47/169 9/58/170 47/59/171 45/52/172
f 9/58/173 10/61/174 48/60/175 47/59/176
f 10/61/177 26/48/178 46/53/179 48/60/180
f 2/50/181 71/55/182 31/56/183 32/51/184
f 49/25/185 53/27/186 55/28/187 54/26/188
f 53/27/189 52/29/190 56/30/191 55/28/192
f 52/29/193 51/31/194 57/32/195 56/30/196
f 51/37/197 50/34/198 58/33/199 57/38/200
f 63/35/201 62/39/202 65/40/203 64/36/204
f 62/15/205 61/13/206 66/14/207 65/16/208
f 61/13/209 60/11/210 67/12/211 66/14/212
f 60/11/213 59/10/214 68/9/215 67/12/216
f 4/79/217 50/89/218 51/93/219
f 4/79/220 51/93/221 52/94/222
f 4/79/223 52/94/224 53/90/225
f 4/79/226 53/90/227 49/84/228
f 3/72/229 59/81/230 60/87/231
f 3/72/232 60/87/233 61/91/234
f 3/72/235 61/91/236 62/92/237
f 3/72/238 62/92/239 63/88/240
f 3/72/241 63/88/242 50/89/243 4/79/244
f 4/79/245 49/84/246 20/77/247 19/69/248
